<svg width="11" height="20" viewBox="0 0 11 20" fill="none" xmlns="http://www.w3.org/2000/svg">
<path d="M10.5397 8.89704L2.4463 0.44262C2.31337 0.302369 2.15522 0.191049 1.98097 0.115081C1.80672 0.0391125 1.61982 0 1.43106 0C1.24229 0 1.05539 0.0391125 0.881141 0.115081C0.706891 0.191049 0.54874 0.302369 0.415811 0.44262C0.149486 0.722981 0 1.10224 0 1.49755C0 1.89287 0.149486 2.27212 0.415811 2.55248L7.49393 10.0343L0.415811 17.4412C0.149486 17.7216 0 18.1008 0 18.4962C0 18.8915 0.149486 19.2707 0.415811 19.5511C0.548242 19.6925 0.70617 19.805 0.880442 19.882C1.05471 19.9591 1.24187 19.9992 1.43106 20C1.62024 19.9992 1.8074 19.9591 1.98167 19.882C2.15594 19.805 2.31387 19.6925 2.4463 19.5511L10.5397 11.0967C10.6848 10.9566 10.8006 10.7865 10.8799 10.5972C10.9591 10.4079 11 10.2035 11 9.99686C11 9.79021 10.9591 9.5858 10.8799 9.39651C10.8006 9.20722 10.6848 9.03716 10.5397 8.89704V8.89704Z" fill="white"/>
</svg>
