<svg width="21" height="12" viewBox="0 0 21 12" fill="none" xmlns="http://www.w3.org/2000/svg">
<g clip-path="url(#clip0_513_23)">
<path d="M9.39704 0.960339L0.94262 9.0537C0.802369 9.18663 0.691049 9.34478 0.615081 9.51903C0.539112 9.69328 0.5 9.88018 0.5 10.0689C0.5 10.2577 0.539112 10.4446 0.615081 10.6189C0.691049 10.7931 0.802369 10.9513 0.94262 11.0842C1.22298 11.3505 1.60224 11.5 1.99755 11.5C2.39287 11.5 2.77212 11.3505 3.05248 11.0842L10.5343 4.00607L17.9412 11.0842C18.2216 11.3505 18.6008 11.5 18.9962 11.5C19.3915 11.5 19.7707 11.3505 20.0511 11.0842C20.1925 10.9518 20.305 10.7938 20.382 10.6196C20.4591 10.4453 20.4992 10.2581 20.5 10.0689C20.4992 9.87976 20.4591 9.6926 20.382 9.51833C20.305 9.34406 20.1925 9.18613 20.0511 9.0537L11.5967 0.960339C11.4566 0.815195 11.2865 0.699359 11.0972 0.620131C10.9079 0.540903 10.7035 0.5 10.4969 0.5C10.2902 0.5 10.0858 0.540903 9.89651 0.620131C9.70722 0.699359 9.53716 0.815195 9.39704 0.960339V0.960339Z" fill="#959595"/>
</g>
<defs>
<clipPath id="clip0_513_23">
<rect width="11" height="20" fill="white" transform="translate(0.5 11.5) rotate(-90)"/>
</clipPath>
</defs>
</svg>
