<svg width="20" height="11" viewBox="0 0 20 11" fill="none" xmlns="http://www.w3.org/2000/svg">
<g clip-path="url(#clip0_854_5)">
<path d="M8.89704 0.46034L0.44262 8.5537C0.302369 8.68663 0.191049 8.84478 0.115081 9.01903C0.0391125 9.19328 0 9.38018 0 9.56894C0 9.75771 0.0391125 9.94461 0.115081 10.1189C0.191049 10.2931 0.302369 10.4513 0.44262 10.5842C0.722981 10.8505 1.10224 11 1.49755 11C1.89287 11 2.27212 10.8505 2.55248 10.5842L10.0343 3.50607L17.4412 10.5842C17.7216 10.8505 18.1008 11 18.4962 11C18.8915 11 19.2707 10.8505 19.5511 10.5842C19.6925 10.4518 19.805 10.2938 19.882 10.1196C19.9591 9.94529 19.9992 9.75813 20 9.56894C19.9992 9.37976 19.9591 9.1926 19.882 9.01833C19.805 8.84406 19.6925 8.68613 19.5511 8.5537L11.0967 0.46034C10.9566 0.315196 10.7865 0.19936 10.5972 0.120131C10.4079 0.0409033 10.2035 0 9.99686 0C9.79021 0 9.5858 0.0409033 9.39651 0.120131C9.20722 0.19936 9.03716 0.315196 8.89704 0.46034Z" fill="white"/>
</g>
<defs>
<clipPath id="clip0_854_5">
<rect width="11" height="20" fill="white" transform="translate(0 11) rotate(-90)"/>
</clipPath>
</defs>
</svg>
