<svg width="21" height="12" viewBox="0 0 21 12" fill="none" xmlns="http://www.w3.org/2000/svg">
<g clip-path="url(#clip0_513_23)">
<path d="M11.603 11.0397L20.0574 2.9463C20.1976 2.81337 20.309 2.65522 20.3849 2.48097C20.4609 2.30672 20.5 2.11982 20.5 1.93106C20.5 1.74229 20.4609 1.55539 20.3849 1.38114C20.309 1.20689 20.1976 1.04874 20.0574 0.915811C19.777 0.649486 19.3978 0.5 19.0024 0.5C18.6071 0.5 18.2279 0.649486 17.9475 0.915811L10.4657 7.99393L3.05877 0.915811C2.77841 0.649486 2.39915 0.5 2.00384 0.5C1.60852 0.5 1.22927 0.649486 0.948906 0.915811C0.807518 1.04824 0.695036 1.20617 0.617979 1.38044C0.540921 1.55471 0.500822 1.74187 0.5 1.93106C0.500822 2.12024 0.540921 2.3074 0.617979 2.48167C0.695036 2.65594 0.807518 2.81387 0.948906 2.9463L9.40332 11.0397C9.54344 11.1848 9.71351 11.3006 9.90279 11.3799C10.0921 11.4591 10.2965 11.5 10.5031 11.5C10.7098 11.5 10.9142 11.4591 11.1035 11.3799C11.2928 11.3006 11.4628 11.1848 11.603 11.0397V11.0397Z" fill="#959595"/>
</g>
<defs>
<clipPath id="clip0_513_23">
<rect width="11" height="20" fill="white" transform="translate(20.5 0.5) rotate(90)"/>
</clipPath>
</defs>
</svg>
