<svg width="20" height="20" viewBox="0 0 20 20" fill="none" xmlns="http://www.w3.org/2000/svg">
<path d="M18.2456 2.68979C15.9057 0.349868 12.1188 0.350103 9.77918 2.68979L1.36449 11.1045C-0.45418 12.9231 -0.45418 15.8823 1.36449 17.701C3.18363 19.5201 6.14285 19.5191 7.96098 17.701L16.3757 9.28627C17.6788 7.98315 17.6788 5.86284 16.3757 4.55971C15.0726 3.25655 12.9522 3.25655 11.6491 4.55971L4.47227 11.7365C4.1998 12.009 4.1998 12.4508 4.47227 12.7232C4.74473 12.9957 5.18652 12.9957 5.45895 12.7232L12.6358 5.54639C13.3948 4.78733 14.6299 4.78733 15.3889 5.54639C16.148 6.30545 16.148 7.54053 15.3889 8.29956L6.9743 16.7143C5.69656 17.992 3.62875 17.9919 2.35117 16.7143C1.73375 16.0969 1.39371 15.276 1.39371 14.4028C1.39371 13.5296 1.73379 12.7087 2.35117 12.0912L10.7659 3.67647C12.5604 1.88194 15.4646 1.88217 17.2589 3.67647C19.049 5.46663 19.049 8.3794 17.2589 10.1695L13.519 13.9094C13.2466 14.1819 13.2466 14.6236 13.519 14.8961C13.7915 15.1685 14.2333 15.1685 14.5057 14.8961L18.2456 11.1562C20.5855 8.81635 20.5853 5.0294 18.2456 2.68979Z" fill="#959595"/>
</svg>
