<svg width="23" height="20" viewBox="0 0 23 20" fill="none" xmlns="http://www.w3.org/2000/svg">
<path d="M19.1667 13V11H20.125C20.6543 11 21.0833 10.5523 21.0833 10C21.0833 9.44772 20.6543 9 20.125 9H11.4534L11.2276 8.33325C10.5565 6.35198 8.75548 5 6.70833 5C4.06197 5 1.91667 7.23858 1.91667 10C1.91667 12.7614 4.06197 15 6.70833 15C8.75548 15 10.5565 13.648 11.2276 11.6668L11.4534 11H17.25V13H19.1667ZM21.0833 15H15.3333V13H12.7711C11.6775 15.4064 9.33815 17 6.70833 17C3.00342 17 0 13.866 0 10C0 6.13401 3.00342 3 6.70833 3C9.33815 3 11.6775 4.59358 12.7711 7H20.125C21.7128 7 23 8.34315 23 10C23 11.3062 22.2 12.4175 21.0833 12.8293V15ZM6.70833 12C7.76688 12 8.625 11.1046 8.625 10C8.625 8.89543 7.76688 8 6.70833 8C5.64979 8 4.79167 8.89543 4.79167 10C4.79167 11.1046 5.64979 12 6.70833 12Z" fill="#959595"/>
</svg>
