<svg width="20" height="15" viewBox="0 0 20 15" fill="none" xmlns="http://www.w3.org/2000/svg">
<path d="M16.6667 9.85714V8.28571H17.5C17.9602 8.28571 18.3333 7.93394 18.3333 7.5C18.3333 7.06606 17.9602 6.71429 17.5 6.71429H9.95951L9.76312 6.19041C9.17956 4.6337 7.61346 3.57143 5.83333 3.57143C3.53215 3.57143 1.66667 5.33031 1.66667 7.5C1.66667 9.66969 3.53215 11.4286 5.83333 11.4286C7.61346 11.4286 9.17956 10.3663 9.76312 8.80959L9.95951 8.28571H15V9.85714H16.6667ZM18.3333 11.4286H13.3333V9.85714H11.1053C10.1544 11.7479 8.12013 13 5.83333 13C2.61167 13 0 10.5376 0 7.5C0 4.46243 2.61167 2 5.83333 2C8.12013 2 10.1544 3.2521 11.1053 5.14286H17.5C18.8807 5.14286 20 6.19819 20 7.5C20 8.52631 19.3043 9.39943 18.3333 9.72302V11.4286ZM5.83333 9.07143C6.75381 9.07143 7.5 8.36788 7.5 7.5C7.5 6.63212 6.75381 5.92857 5.83333 5.92857C4.91286 5.92857 4.16667 6.63212 4.16667 7.5C4.16667 8.36788 4.91286 9.07143 5.83333 9.07143Z" fill="black"/>
</svg>
