<svg width="20" height="15" viewBox="0 0 20 15" fill="none" xmlns="http://www.w3.org/2000/svg">
<path d="M16.6667 10.0714V8.35714H17.5C17.9602 8.35714 18.3333 7.97339 18.3333 7.5C18.3333 7.02661 17.9602 6.64286 17.5 6.64286H9.95951L9.76312 6.07135C9.17956 4.37312 7.61346 3.21429 5.83333 3.21429C3.53215 3.21429 1.66667 5.13307 1.66667 7.5C1.66667 9.86693 3.53215 11.7857 5.83333 11.7857C7.61346 11.7857 9.17956 10.6269 9.76312 8.92865L9.95951 8.35714H15V10.0714H16.6667ZM18.3333 11.7857H13.3333V10.0714H11.1053C10.1544 12.1341 8.12013 13.5 5.83333 13.5C2.61167 13.5 0 10.8137 0 7.5C0 4.18629 2.61167 1.5 5.83333 1.5C8.12013 1.5 10.1544 2.86593 11.1053 4.92857H17.5C18.8807 4.92857 20 6.07984 20 7.5C20 8.61962 19.3043 9.57211 18.3333 9.92511V11.7857ZM5.83333 9.21429C6.75381 9.21429 7.5 8.44677 7.5 7.5C7.5 6.55323 6.75381 5.78571 5.83333 5.78571C4.91286 5.78571 4.16667 6.55323 4.16667 7.5C4.16667 8.44677 4.91286 9.21429 5.83333 9.21429Z" fill="black"/>
</svg>
