<svg width="20" height="20" viewBox="0 0 20 20" fill="none" xmlns="http://www.w3.org/2000/svg">
<path d="M8.74921 0C3.92606 0 0.000305176 3.19585 0.000305176 7.12411C0.000305176 9.11386 1.00018 10.9799 2.76621 12.3222C2.20503 13.1946 1.42763 14.1557 0.475246 14.392C0.174033 14.4669 -0.0271914 14.7519 0.00405471 15.0606C0.034051 15.3706 0.289019 15.6093 0.59898 15.623C0.613978 15.623 0.668972 15.6255 0.75771 15.6255C1.40638 15.6255 3.89982 15.5218 6.72821 14.0545C7.37313 14.1832 8.0518 14.2482 8.74921 14.2482C13.5724 14.2482 17.4981 11.0524 17.4981 7.12411C17.4981 3.19585 13.5724 0 8.74921 0ZM8.74921 12.9984C8.0618 12.9984 7.39813 12.9271 6.77446 12.7859C6.62823 12.7522 6.47325 12.7734 6.33951 12.8459C5.12966 13.4983 3.97106 13.8733 3.01868 14.0882C3.45987 13.5733 3.82858 12.9984 4.14229 12.4672C4.31227 12.1797 4.22478 11.8098 3.94606 11.6273C2.23253 10.5049 1.25015 8.86389 1.25015 7.12411C1.25015 3.88451 4.61348 1.24984 8.74921 1.24984C12.8849 1.24984 16.2483 3.88451 16.2483 7.12411C16.2483 10.3625 12.8849 12.9984 8.74921 12.9984Z" fill="#959595"/>
<path d="M19.5268 18.7551C18.8118 18.5739 18.1207 17.9977 17.4695 17.0391C19.0843 15.7892 19.998 14.0682 19.998 12.2359C19.998 11.3673 19.7905 10.5112 19.3818 9.69376C19.2268 9.38379 18.8481 9.26256 18.5431 9.41504C18.2344 9.57002 18.1094 9.94497 18.2632 10.2537C18.5844 10.8961 18.7481 11.5623 18.7481 12.2359C18.7481 13.8207 17.8482 15.3206 16.2797 16.3504C15.9997 16.5329 15.9147 16.9041 16.0859 17.1916C16.3946 17.7128 16.7134 18.1614 17.0458 18.5389C16.1972 18.3627 15.181 18.044 14.1199 17.4728C13.9887 17.4015 13.8337 17.3815 13.6887 17.4128C11.1765 17.9652 8.47062 17.3116 6.77582 15.8167C6.5146 15.5868 6.1209 15.613 5.89343 15.8717C5.66471 16.1305 5.68971 16.5254 5.94842 16.7541C7.88694 18.4614 10.8953 19.2313 13.7312 18.6801C16.0059 19.85 18.0494 20 18.9506 20C19.2368 20 19.4068 19.985 19.4343 19.9825C19.7367 19.9537 19.9755 19.7113 19.998 19.4088C20.0205 19.1051 19.8217 18.8301 19.5268 18.7551Z" fill="#959595"/>
</svg>
