<svg width="18" height="18" viewBox="0 0 18 18" fill="none" xmlns="http://www.w3.org/2000/svg">
<path d="M12.2117 9.83286C13.1593 8.96314 13.69 7.75308 13.69 6.44039C13.69 3.87983 11.6052 1.80005 9.03859 1.80005C6.47193 1.80005 4.3872 3.88163 4.3872 6.44039C4.3872 7.76388 4.9305 9.00095 5.90337 9.87067C3.60385 10.7908 2.03715 12.6833 1.86026 14.0068C1.69601 15.2673 2.5299 15.9498 3.30062 16.1514C3.36379 16.164 3.4396 16.1766 3.50277 16.1766C3.83128 16.1766 4.09661 15.9624 4.13451 15.6725C4.17241 15.3321 3.85655 15.1683 3.60385 15.0422C3.56595 15.017 3.51541 15.0044 3.47751 14.9792C3.30062 14.8784 2.89631 14.5758 3.12373 13.8574C3.46487 12.7842 5.10738 11.259 7.05494 10.6396C7.67404 10.9547 8.2805 11.0933 9.05122 11.0933C9.83457 11.0933 10.4158 10.9673 11.0222 10.6648C13.1719 11.5093 14.347 12.4294 14.9534 13.7421C15.0545 13.9564 15.3325 14.6623 14.8397 14.9522C14.7513 15.0026 14.6502 15.0404 14.5491 15.0656C14.3343 15.1286 14.0437 15.2295 14.0058 15.5446C13.9806 15.7211 14.0185 15.8975 14.1322 16.011C14.2333 16.137 14.3975 16.2 14.5618 16.2C14.6249 16.2 14.6881 16.1874 14.7639 16.1748C15.901 15.8723 16.457 15.053 16.2675 13.9798C15.9408 12.3808 14.1195 10.5387 12.2117 9.83286ZM12.477 6.44039C12.477 8.39412 10.9988 9.87067 9.03859 9.87067C7.08021 9.87067 5.60014 8.39592 5.60014 6.44039C5.60014 4.48666 7.0784 3.0101 9.03859 3.0101C10.9988 3.0119 12.477 4.48666 12.477 6.44039Z" fill="#959595"/>
<path d="M17.9729 12.7157C17.7762 11.5366 16.5468 10.1631 15.2471 9.62715C15.8766 8.98402 16.2307 8.08364 16.2307 7.10669C16.2307 5.39168 15.0603 3.90023 13.4951 3.65369L13.2 3.6001L13.3082 3.96454C13.3574 4.12532 13.3869 4.25395 13.4361 4.45761L13.4656 4.58623L13.5836 4.61839C14.657 4.89861 15.4143 5.92762 15.4143 7.10822C15.4143 8.05148 14.9324 8.91971 14.1653 9.34999L14.0472 9.4143L14.0669 9.56437C14.0767 9.66084 14.0866 9.74659 14.0964 9.83234C14.0964 9.89665 14.1063 9.97168 14.1161 10.0467L14.1358 10.1861L14.2833 10.2289C15.2963 10.5183 16.6156 11.4616 17.068 12.5457C17.1172 12.6529 17.3238 13.1996 16.9992 13.414C16.9402 13.4568 16.8713 13.4783 16.8025 13.4997C16.655 13.5533 16.4484 13.6176 16.4091 13.8749C16.3894 14.0142 16.4189 14.1536 16.4976 14.25C16.5763 14.3465 16.6845 14.4001 16.8123 14.4001C16.8615 14.4001 16.9107 14.3894 16.95 14.3787C17.7172 14.152 18.1106 13.5303 17.9729 12.7157Z" fill="#959595"/>
<path d="M0.0271141 12.7157C0.223818 11.5366 1.45322 10.1631 2.75287 9.62715C2.12341 8.98402 1.76935 8.08364 1.76935 7.10669C1.76935 5.39168 2.93973 3.90023 4.50493 3.65369L4.79999 3.6001L4.6918 3.96454C4.64263 4.12532 4.61312 4.25395 4.56394 4.45761L4.53444 4.58623L4.41642 4.61839C3.34298 4.89861 2.58567 5.92762 2.58567 7.10822C2.58567 8.05148 3.06759 8.91971 3.83474 9.34999L3.95276 9.4143L3.93309 9.56437C3.92325 9.66084 3.91342 9.74659 3.90358 9.83234C3.90358 9.89665 3.89375 9.97168 3.88391 10.0467L3.86424 10.1861L3.71671 10.2289C2.70369 10.5183 1.38437 11.4616 0.931951 12.5457C0.882775 12.6529 0.676236 13.1996 1.0008 13.414C1.05981 13.4568 1.12865 13.4783 1.1975 13.4997C1.34503 13.5533 1.55157 13.6176 1.59091 13.8749C1.61058 14.0142 1.58107 14.1536 1.50239 14.25C1.42371 14.3465 1.31552 14.4001 1.18767 14.4001C1.13849 14.4001 1.08931 14.3894 1.04997 14.3787C0.282829 14.152 -0.110578 13.5303 0.0271141 12.7157Z" fill="#959595"/>
</svg>
