<svg width="20" height="20" viewBox="0 0 20 20" fill="none" xmlns="http://www.w3.org/2000/svg">
<g clip-path="url(#clip0)">
<path d="M2.91115 18.805H1.49401L2.4961 17.8029C3.03641 17.2626 3.37382 16.5598 3.46453 15.7975C2.05459 14.8722 1.02358 13.6549 0.471685 12.2588C-0.079823 10.8638 -0.149128 9.3282 0.271282 7.81789C0.775712 6.00566 1.95883 4.35387 3.60263 3.16676C5.38892 1.87681 7.61264 1.19495 10.0334 1.19495C13.083 1.19495 15.6534 2.0711 17.4667 3.72864C19.1003 5.22193 20 7.23617 20 9.40036C20 10.4518 19.7859 11.4749 19.3637 12.4411C18.9268 13.441 18.287 14.3314 17.4621 15.0873C15.6463 16.7514 13.0775 17.631 10.0334 17.631C8.90334 17.631 7.72413 17.4801 6.67132 17.2033C5.67479 18.2256 4.32441 18.805 2.91115 18.805ZM10.0334 2.36895C5.17936 2.36895 2.20087 5.26376 1.40228 8.13271C0.647628 10.8439 1.76007 13.4057 4.3781 14.9856L4.67062 15.1621L4.66162 15.5036C4.64378 16.1796 4.48263 16.8307 4.19417 17.4193C4.89658 17.1816 5.53395 16.7508 6.03305 16.1611L6.28124 15.8679L6.64929 15.9779C7.68214 16.2869 8.88396 16.457 10.0334 16.457C16.0745 16.457 18.826 12.7991 18.826 9.40036C18.826 7.56986 18.062 5.86333 16.6746 4.59517C15.0814 3.13878 12.7849 2.36895 10.0334 2.36895Z" fill="black"/>
</g>
<defs>
<clipPath id="clip0">
<rect width="20" height="20" fill="white"/>
</clipPath>
</defs>
</svg>
