<svg width="15" height="15" viewBox="0 0 15 15" fill="none" xmlns="http://www.w3.org/2000/svg">
<path d="M10.0327 8.17469C10.797 7.47005 11.225 6.48968 11.225 5.42616C11.225 3.35163 9.54352 1.66663 7.47334 1.66663C5.40316 1.66663 3.72169 3.35309 3.72169 5.42616C3.72169 6.49844 4.15989 7.50069 4.94458 8.20533C3.08986 8.95082 1.8262 10.4841 1.68353 11.5564C1.55105 12.5776 2.22364 13.1305 2.84528 13.2939C2.89623 13.3041 2.95738 13.3143 3.00833 13.3143C3.27329 13.3143 3.4873 13.1407 3.51787 12.9058C3.54844 12.6301 3.29367 12.4974 3.08986 12.3952C3.05929 12.3748 3.01852 12.3646 2.98795 12.3442C2.84528 12.2625 2.51918 12.0174 2.70261 11.4353C2.97776 10.5658 4.30256 9.33012 5.87339 8.82827C6.37274 9.08357 6.8619 9.19591 7.48353 9.19591C8.11536 9.19591 8.58413 9.09379 9.07329 8.8487C10.8072 9.53291 11.7549 10.2784 12.2441 11.3419C12.3256 11.5155 12.5498 12.0874 12.1524 12.3223C12.081 12.3631 11.9995 12.3938 11.918 12.4142C11.7447 12.4653 11.5103 12.547 11.4798 12.8023C11.4594 12.9452 11.49 13.0882 11.5817 13.1801C11.6632 13.2822 11.7957 13.3333 11.9282 13.3333C11.9791 13.3333 12.0301 13.3231 12.0912 13.3129C13.0084 13.0678 13.4568 12.404 13.3039 11.5345C13.0404 10.239 11.5715 8.74657 10.0327 8.17469ZM10.2467 5.42616C10.2467 7.00905 9.05437 8.20533 7.47334 8.20533C5.89377 8.20533 4.7 7.0105 4.7 5.42616C4.7 3.84328 5.89232 2.64699 7.47334 2.64699C9.05437 2.64845 10.2467 3.84328 10.2467 5.42616Z" fill="#8A2FFF"/>
<path d="M14.9764 10.237C14.8057 9.23626 13.7385 8.07044 12.6103 7.61555C13.1567 7.06969 13.4641 6.30547 13.4641 5.47628C13.4641 4.02063 12.4481 2.75474 11.0895 2.54549L10.8333 2.5L10.9272 2.80932C10.9699 2.94579 10.9955 3.05496 11.0382 3.22782L11.0638 3.337L11.1663 3.36429C12.0981 3.60213 12.7555 4.47552 12.7555 5.47757C12.7555 6.27818 12.3371 7.0151 11.6712 7.38031L11.5688 7.4349L11.5858 7.56227C11.5944 7.64415 11.6029 7.71693 11.6115 7.78971C11.6115 7.8443 11.62 7.90798 11.6285 7.97167L11.6456 8.08994L11.7737 8.12633C12.653 8.37197 13.7983 9.17257 14.191 10.0928C14.2337 10.1837 14.413 10.6477 14.1312 10.8297C14.08 10.8661 14.0202 10.8843 13.9605 10.9025C13.8324 10.9479 13.6531 11.0025 13.619 11.2209C13.6019 11.3391 13.6275 11.4574 13.6958 11.5393C13.7641 11.6212 13.858 11.6667 13.969 11.6667C14.0117 11.6667 14.0544 11.6576 14.0885 11.6485C14.7545 11.4561 15.096 10.9284 14.9764 10.237Z" fill="#8A2FFF"/>
<path d="M0.0235519 10.237C0.194302 9.23626 1.26149 8.07044 2.38966 7.61555C1.84326 7.06969 1.53591 6.30547 1.53591 5.47628C1.53591 4.02063 2.55187 2.75474 3.91055 2.54549L4.16667 2.5L4.07276 2.80932C4.03007 2.94579 4.00446 3.05496 3.96177 3.22782L3.93616 3.337L3.83371 3.36429C2.9019 3.60213 2.24452 4.47552 2.24452 5.47757C2.24452 6.27818 2.66286 7.0151 3.32878 7.38031L3.43123 7.4349L3.41415 7.56227C3.40562 7.64415 3.39708 7.71693 3.38854 7.78971C3.38854 7.8443 3.38 7.90798 3.37147 7.97167L3.35439 8.08994L3.22633 8.12633C2.34697 8.37197 1.20173 9.17257 0.809 10.0928C0.766313 10.1837 0.587026 10.6477 0.868763 10.8297C0.919988 10.8661 0.979751 10.8843 1.03951 10.9025C1.16758 10.9479 1.34686 11.0025 1.38101 11.2209C1.39809 11.3391 1.37247 11.4574 1.30418 11.5393C1.23588 11.6212 1.14196 11.6667 1.03098 11.6667C0.988288 11.6667 0.945601 11.6576 0.911451 11.6485C0.245527 11.4561 -0.0959725 10.9284 0.0235519 10.237Z" fill="#8A2FFF"/>
</svg>
