<svg width="26" height="17" viewBox="0 0 26 17" fill="none" xmlns="http://www.w3.org/2000/svg">
<g clip-path="url(#clip0_406_37)">
<path d="M16.8659 9.48318C18.0065 8.45642 18.6453 7.02789 18.6453 5.47818C18.6453 2.4553 16.1359 0 13.0464 0C9.9569 0 7.4475 2.45742 7.4475 5.47818C7.4475 7.04064 8.10146 8.50106 9.27252 9.52782C6.50458 10.6141 4.61873 12.8483 4.40581 14.4108C4.2081 15.8988 5.21186 16.7045 6.13957 16.9426C6.21562 16.9575 6.30687 16.9724 6.38291 16.9724C6.77833 16.9724 7.09771 16.7194 7.14333 16.3771C7.18896 15.9754 6.80875 15.7819 6.50458 15.6331C6.45895 15.6034 6.39812 15.5885 6.35249 15.5587C6.13957 15.4397 5.6529 15.0825 5.92666 14.2343C6.33728 12.9674 8.31438 11.1668 10.6587 10.4355C11.4039 10.8076 12.1339 10.9712 13.0616 10.9712C14.0045 10.9712 14.7041 10.8224 15.4341 10.4653C18.0217 11.4623 19.4361 12.5486 20.1661 14.0983C20.2878 14.3513 20.6224 15.1846 20.0292 15.5268C19.9228 15.5863 19.8011 15.631 19.6794 15.6607C19.4209 15.7352 19.0711 15.8542 19.0255 16.2262C18.9951 16.4345 19.0407 16.6429 19.1776 16.7768C19.2992 16.9256 19.4969 17 19.6947 17C19.7707 17 19.8467 16.9851 19.938 16.9702C21.3068 16.6131 21.9759 15.6459 21.7478 14.3789C21.3546 12.4912 19.1624 10.3165 16.8659 9.48318ZM17.1853 5.47818C17.1853 7.78467 15.4059 9.52782 13.0464 9.52782C10.6891 9.52782 8.90751 7.78679 8.90751 5.47818C8.90751 3.17169 10.6869 1.42854 13.0464 1.42854C15.4059 1.43066 17.1853 3.17169 17.1853 5.47818Z" fill="#959595"/>
<path d="M25.958 13.6549C25.6538 12.018 23.7527 10.1112 21.7429 9.36713C22.7163 8.47429 23.2638 7.22433 23.2638 5.86807C23.2638 3.48718 21.4539 1.41666 19.0335 1.0744L18.5772 1L18.7445 1.50594C18.8206 1.72915 18.8662 1.90771 18.9422 2.19045L18.9879 2.36901L19.1704 2.41365C20.8303 2.80267 22.0015 4.23121 22.0015 5.8702C22.0015 7.17969 21.2562 8.38501 20.0699 8.98236L19.8874 9.07164L19.9178 9.27997C19.933 9.4139 19.9482 9.53294 19.9634 9.65199C19.9634 9.74127 19.9786 9.84543 19.9938 9.9496L20.0243 10.143L20.2524 10.2026C21.8189 10.6043 23.8592 11.9138 24.5588 13.4189C24.6348 13.5677 24.9542 14.3266 24.4523 14.6242C24.3611 14.6837 24.2546 14.7135 24.1481 14.7433C23.92 14.8177 23.6006 14.9069 23.5398 15.2641C23.5093 15.4575 23.555 15.651 23.6766 15.7849C23.7983 15.9188 23.9656 15.9932 24.1633 15.9932C24.2394 15.9932 24.3154 15.9784 24.3763 15.9635C25.5626 15.6489 26.171 14.7858 25.958 13.6549Z" fill="#959595"/>
<path d="M0.041539 13.6606C0.342652 12.023 2.22461 10.1153 4.21411 9.3709C3.25055 8.47767 2.70854 7.22714 2.70854 5.87027C2.70854 3.4883 4.50017 1.41684 6.89617 1.07444L7.34784 1L7.18223 1.50617C7.10695 1.72948 7.06178 1.90812 6.9865 2.19098L6.94134 2.36963L6.76067 2.41429C5.11745 2.80349 3.95816 4.23267 3.95816 5.87239C3.95816 7.18248 4.69589 8.38835 5.87023 8.98596L6.0509 9.07529L6.02079 9.28371C6.00573 9.41769 5.99068 9.53679 5.97562 9.65589C5.97562 9.74521 5.96057 9.84943 5.94551 9.95364L5.9154 10.1472L5.68957 10.2067C4.13883 10.6087 2.11922 11.9188 1.42666 13.4245C1.35138 13.5734 1.03521 14.3326 1.53205 14.6304C1.62238 14.6899 1.72777 14.7197 1.83316 14.7495C2.059 14.8239 2.37517 14.9132 2.43539 15.2705C2.4655 15.4641 2.42033 15.6576 2.29989 15.7916C2.17944 15.9256 2.01383 16 1.81811 16C1.74283 16 1.66755 15.9851 1.60733 15.9702C0.432987 15.6555 -0.16924 14.792 0.041539 13.6606Z" fill="#959595"/>
</g>
<defs>
<clipPath id="clip0_406_37">
<rect width="26" height="17" fill="white"/>
</clipPath>
</defs>
</svg>
