<svg width="15" height="15" viewBox="0 0 15 15" fill="none" xmlns="http://www.w3.org/2000/svg">
<path d="M10.0327 8.17469C10.797 7.47005 11.225 6.48968 11.225 5.42616C11.225 3.35163 9.54354 1.66663 7.47336 1.66663C5.40318 1.66663 3.7217 3.35309 3.7217 5.42616C3.7217 6.49844 4.1599 7.50069 4.94459 8.20533C3.08987 8.95082 1.82622 10.4841 1.68355 11.5564C1.55107 12.5776 2.22366 13.1305 2.8453 13.2939C2.89625 13.3041 2.95739 13.3143 3.00835 13.3143C3.27331 13.3143 3.48731 13.1407 3.51789 12.9058C3.54846 12.6301 3.29369 12.4974 3.08987 12.3952C3.0593 12.3748 3.01854 12.3646 2.98797 12.3442C2.8453 12.2625 2.51919 12.0174 2.70262 11.4353C2.97778 10.5658 4.30257 9.33013 5.87341 8.82827C6.37275 9.08357 6.86191 9.19591 7.48355 9.19591C8.11537 9.19591 8.58415 9.09379 9.07331 8.8487C10.8072 9.53291 11.7549 10.2784 12.2441 11.3419C12.3256 11.5155 12.5498 12.0874 12.1524 12.3223C12.081 12.3631 11.9995 12.3938 11.918 12.4142C11.7447 12.4653 11.5104 12.547 11.4798 12.8023C11.4594 12.9452 11.49 13.0882 11.5817 13.1801C11.6632 13.2822 11.7957 13.3333 11.9282 13.3333C11.9791 13.3333 12.0301 13.3231 12.0912 13.3129C13.0084 13.0678 13.4568 12.404 13.3039 11.5345C13.0404 10.239 11.5715 8.74657 10.0327 8.17469ZM10.2467 5.42616C10.2467 7.00905 9.05438 8.20533 7.47336 8.20533C5.89379 8.20533 4.70001 7.0105 4.70001 5.42616C4.70001 3.84328 5.89233 2.64699 7.47336 2.64699C9.05438 2.64845 10.2467 3.84328 10.2467 5.42616Z" fill="#959595"/>
<path d="M14.9764 10.237C14.8057 9.23626 13.7385 8.07044 12.6103 7.61555C13.1567 7.06969 13.4641 6.30547 13.4641 5.47628C13.4641 4.02063 12.4481 2.75474 11.0894 2.54549L10.8333 2.5L10.9272 2.80932C10.9699 2.94579 10.9955 3.05496 11.0382 3.22782L11.0638 3.337L11.1663 3.36429C12.0981 3.60213 12.7555 4.47552 12.7555 5.47757C12.7555 6.27818 12.3371 7.0151 11.6712 7.38031L11.5688 7.4349L11.5858 7.56227C11.5944 7.64415 11.6029 7.71693 11.6114 7.78971C11.6114 7.8443 11.62 7.90798 11.6285 7.97167L11.6456 8.08994L11.7737 8.12633C12.653 8.37197 13.7983 9.17258 14.191 10.0928C14.2337 10.1837 14.413 10.6477 14.1312 10.8297C14.08 10.8661 14.0202 10.8843 13.9605 10.9025C13.8324 10.9479 13.6531 11.0025 13.619 11.2209C13.6019 11.3391 13.6275 11.4574 13.6958 11.5393C13.7641 11.6212 13.858 11.6667 13.969 11.6667C14.0117 11.6667 14.0544 11.6576 14.0885 11.6485C14.7545 11.4561 15.096 10.9284 14.9764 10.237Z" fill="#959595"/>
<path d="M0.0235674 10.237C0.194317 9.23626 1.2615 8.07044 2.38967 7.61555C1.84327 7.06969 1.53592 6.30547 1.53592 5.47628C1.53592 4.02063 2.55188 2.75474 3.91056 2.54549L4.16669 2.5L4.07278 2.80932C4.03009 2.94579 4.00447 3.05496 3.96179 3.22782L3.93618 3.337L3.83373 3.36429C2.90192 3.60213 2.24453 4.47552 2.24453 5.47757C2.24453 6.27818 2.66287 7.0151 3.32879 7.38031L3.43124 7.4349L3.41417 7.56227C3.40563 7.64415 3.39709 7.71693 3.38856 7.78971C3.38856 7.8443 3.38002 7.90798 3.37148 7.97167L3.35441 8.08994L3.22634 8.12633C2.34698 8.37197 1.20174 9.17258 0.809016 10.0928C0.766328 10.1837 0.587041 10.6477 0.868779 10.8297C0.920003 10.8661 0.979766 10.8843 1.03953 10.9025C1.16759 10.9479 1.34688 11.0025 1.38103 11.2209C1.3981 11.3391 1.37249 11.4574 1.30419 11.5393C1.23589 11.6212 1.14198 11.6667 1.03099 11.6667C0.988303 11.6667 0.945616 11.6576 0.911466 11.6485C0.245542 11.4561 -0.0959575 10.9284 0.0235674 10.237Z" fill="#959595"/>
</svg>
