<svg width="18" height="20" viewBox="0 0 18 20" fill="none" xmlns="http://www.w3.org/2000/svg">
<path d="M7.28571 0C6.81214 0 6.42857 0.416279 6.42857 0.930233V1.39535H0.857143C0.384 1.39535 0 1.81209 0 2.32558C0 2.83907 0.384 3.25581 0.857143 3.25581H1.35435L2.44336 17.441C2.55307 18.8758 3.67956 20 5.00642 20H12.9936C14.3204 20 15.4465 18.8758 15.5566 17.441L16.6456 3.25581H17.1429C17.616 3.25581 18 2.83907 18 2.32558C18 1.81209 17.616 1.39535 17.1429 1.39535H11.5714V0.930233C11.5714 0.416279 11.1879 0 10.7143 0H7.28571ZM3.0745 3.25581H14.9263L13.8482 17.2865C13.8114 17.7647 13.4367 18.1395 12.9944 18.1395H5.00642C4.5637 18.1395 4.18821 17.7647 4.15179 17.2865L3.0745 3.25581Z" fill="#959595"/>
</svg>
