<svg width="15" height="15" viewBox="0 0 15 15" fill="none" xmlns="http://www.w3.org/2000/svg">
<g clip-path="url(#clip0_405_9)">
<path d="M6.75 2.25H2.08333C1.72971 2.25 1.39057 2.39048 1.14052 2.64052C0.890476 2.89057 0.75 3.22971 0.75 3.58333V12.9167C0.75 13.2703 0.890476 13.6094 1.14052 13.8595C1.39057 14.1095 1.72971 14.25 2.08333 14.25H11.4167C11.7703 14.25 12.1094 14.1095 12.3595 13.8595C12.6095 13.6094 12.75 13.2703 12.75 12.9167V8.25" stroke="#959595" stroke-width="2" stroke-linecap="round" stroke-linejoin="round"/>
<path d="M11.942 1.14599C12.1956 0.892441 12.5394 0.75 12.898 0.75C13.2566 0.75 13.6005 0.892441 13.854 1.14599C14.1076 1.39954 14.25 1.74342 14.25 2.10199C14.25 2.46056 14.1076 2.80444 13.854 3.05799L7.79934 9.11267L5.25 9.75L5.88733 7.20066L11.942 1.14599Z" stroke="#959595" stroke-width="2" stroke-linecap="round" stroke-linejoin="round"/>
</g>
<defs>
<clipPath id="clip0_405_9">
<rect width="15" height="15" fill="white"/>
</clipPath>
</defs>
</svg>
