<svg width="20" height="15" viewBox="0 0 20 15" fill="none" xmlns="http://www.w3.org/2000/svg">
<path d="M7 2H2.33333C1.97971 2 1.64057 2.14048 1.39052 2.39052C1.14048 2.64057 1 2.97971 1 3.33333V12.6667C1 13.0203 1.14048 13.3594 1.39052 13.6095C1.64057 13.8595 1.97971 14 2.33333 14H11.6667C12.0203 14 12.3594 13.8595 12.6095 13.6095C12.8595 13.3594 13 13.0203 13 12.6667V8" stroke="black" stroke-width="2" stroke-linecap="round" stroke-linejoin="round"/>
<path d="M12.692 1.39599C12.9456 1.14244 13.2894 1 13.648 1C14.0066 1 14.3505 1.14244 14.604 1.39599C14.8576 1.64954 15 1.99342 15 2.35199C15 2.71056 14.8576 3.05444 14.604 3.30799L8.54934 9.36267L6 10L6.63733 7.45066L12.692 1.39599Z" stroke="black" stroke-width="2" stroke-linecap="round" stroke-linejoin="round"/>
</svg>
