<svg width="20" height="20" viewBox="0 0 20 20" fill="none" xmlns="http://www.w3.org/2000/svg">
<path d="M10 0C15.5228 0 20 4.47715 20 10C20 15.5228 15.5228 20 10 20C4.47715 20 0 15.5228 0 10C0 4.47715 4.47715 0 10 0ZM10 1.49977C5.30545 1.49977 1.49977 5.30545 1.49977 10C1.49977 14.6946 5.30545 18.5002 10 18.5002C14.6945 18.5002 18.5002 14.6946 18.5002 10C18.5002 5.30545 14.6945 1.49977 10 1.49977ZM6.5 12.5C7.349 13.5776 8.60212 14 10 14C11.396 14 12.6509 13.5751 13.5 12.5C13.7567 12.175 14.175 12.2433 14.5 12.5C14.825 12.7567 14.7567 13.175 14.5 13.5C13.3694 14.9315 11.8599 15.5 10 15.5C8.13765 15.5 6.63043 14.9347 5.5 13.5C5.18881 13.105 5.17469 12.7563 5.5 12.5C5.82531 12.2437 6.24369 12.1747 6.5 12.5ZM7.00091 6.75115C7.69077 6.75115 8.25001 7.31038 8.25001 8.00024C8.25001 8.6901 7.69077 9.24934 7.00091 9.24934C6.31106 9.24934 5.75182 8.6901 5.75182 8.00024C5.75182 7.31038 6.31106 6.75115 7.00091 6.75115ZM13 6.75115C13.6898 6.75115 14.2491 7.31038 14.2491 8.00024C14.2491 8.6901 13.6898 9.24934 13 9.24934C12.3101 9.24934 11.7509 8.6901 11.7509 8.00024C11.7509 7.31038 12.3101 6.75115 13 6.75115Z" fill="#959595"/>
</svg>
