<svg width="15" height="15" viewBox="0 0 15 15" fill="none" xmlns="http://www.w3.org/2000/svg">
<path d="M9.2824 8.25184C10.1304 7.46668 10.6053 6.37426 10.6053 5.1892C10.6053 2.87758 8.73966 1 6.44272 1C4.14578 1 2.28011 2.8792 2.28011 5.1892C2.28011 6.38402 2.76632 7.50081 3.63696 8.28598C1.57908 9.11667 0.177007 10.8252 0.0187085 12.02C-0.128283 13.1579 0.617981 13.774 1.30771 13.9561C1.36425 13.9675 1.43209 13.9789 1.48862 13.9789C1.78261 13.9789 2.02005 13.7854 2.05397 13.5237C2.0879 13.2165 1.80522 13.0685 1.57908 12.9547C1.54516 12.932 1.49993 12.9206 1.46601 12.8978C1.30771 12.8068 0.945885 12.5337 1.14941 11.8851C1.4547 10.9162 2.92462 9.53933 4.66751 8.98012C5.22156 9.2646 5.7643 9.38977 6.45403 9.38977C7.15506 9.38977 7.67518 9.27598 8.21792 9.00288C10.1417 9.76529 11.1933 10.596 11.736 11.781C11.8265 11.9745 12.0752 12.6117 11.6343 12.8735C11.5551 12.919 11.4647 12.9531 11.3742 12.9759C11.182 13.0328 10.9219 13.1238 10.888 13.4083C10.8654 13.5676 10.8993 13.7269 11.0011 13.8293C11.0915 13.9431 11.2385 14 11.3855 14C11.442 14 11.4986 13.9886 11.5664 13.9772C12.5841 13.7041 13.0816 12.9645 12.912 11.9956C12.6196 10.5521 10.9898 8.88908 9.2824 8.25184ZM9.51985 5.1892C9.51985 6.95298 8.19692 8.28598 6.44272 8.28598C4.69013 8.28598 3.36559 6.95461 3.36559 5.1892C3.36559 3.42541 4.68851 2.09241 6.44272 2.09241C8.19692 2.09404 9.51985 3.42541 9.51985 5.1892Z" fill="#8A2FFF"/>
<path d="M14.9757 10.8544C14.8001 9.78993 13.7024 8.54992 12.542 8.06609C13.104 7.48548 13.4202 6.67264 13.4202 5.79067C13.4202 4.2424 12.3752 2.89595 10.9777 2.67338L10.7142 2.625L10.8108 2.95401C10.8547 3.09916 10.8811 3.21528 10.925 3.39914L10.9513 3.51526L11.0567 3.54429C12.0151 3.79727 12.6913 4.72623 12.6913 5.79206C12.6913 6.64361 12.261 7.42742 11.5761 7.81588L11.4707 7.87394L11.4883 8.00941C11.497 8.0965 11.5058 8.17392 11.5146 8.25133C11.5146 8.30939 11.5234 8.37713 11.5322 8.44486L11.5497 8.57066L11.6814 8.60937C12.5859 8.87064 13.7639 9.72219 14.1678 10.7009C14.2117 10.7977 14.3962 11.2912 14.1064 11.4847C14.0537 11.5234 13.9922 11.5428 13.9307 11.5622C13.799 11.6105 13.6146 11.6686 13.5795 11.9008C13.5619 12.0266 13.5883 12.1524 13.6585 12.2395C13.7288 12.3266 13.8254 12.375 13.9395 12.375C13.9834 12.375 14.0273 12.3653 14.0625 12.3556C14.7474 12.1511 15.0987 11.5898 14.9757 10.8544Z" fill="#8A2FFF"/>
</svg>
