<svg width="18" height="18" viewBox="0 0 18 18" fill="none" xmlns="http://www.w3.org/2000/svg">
<path d="M11.1389 9.90216C12.1565 8.95996 12.7264 7.64907 12.7264 6.22699C12.7264 3.45305 10.4876 1.19995 7.73126 1.19995C4.97493 1.19995 2.73614 3.455 2.73614 6.22699C2.73614 7.66077 3.31958 9.00093 4.36435 9.94313C1.89489 10.94 0.212408 12.9902 0.0224502 14.424C-0.15394 15.7895 0.741578 16.5288 1.56925 16.7473C1.63709 16.7609 1.71851 16.7746 1.78635 16.7746C2.13913 16.7746 2.42406 16.5425 2.46477 16.2284C2.50547 15.8597 2.16626 15.6822 1.89489 15.5456C1.85419 15.5183 1.79992 15.5047 1.75921 15.4774C1.56925 15.3681 1.13506 15.0404 1.37929 14.262C1.74564 13.0994 3.50954 11.4471 5.60102 10.7761C6.26587 11.1175 6.91716 11.2677 7.74483 11.2677C8.58607 11.2677 9.21022 11.1311 9.86151 10.8034C12.1701 11.7183 13.4319 12.7151 14.0832 14.1372C14.1918 14.3693 14.4903 15.134 13.9611 15.4481C13.8661 15.5027 13.7576 15.5437 13.649 15.571C13.4184 15.6393 13.1063 15.7485 13.0656 16.0899C13.0385 16.2811 13.0792 16.4722 13.2013 16.5951C13.3098 16.7317 13.4862 16.8 13.6626 16.8C13.7305 16.8 13.7983 16.7863 13.8797 16.7726C15.1009 16.4449 15.6979 15.5573 15.4943 14.3947C15.1435 12.6624 13.1877 10.6669 11.1389 9.90216ZM11.4238 6.22699C11.4238 8.34353 9.83631 9.94313 7.73126 9.94313C5.62815 9.94313 4.03871 8.34548 4.03871 6.22699C4.03871 4.11044 5.62622 2.51084 7.73126 2.51084C9.83631 2.51279 11.4238 4.11044 11.4238 6.22699Z" fill="#959595"/>
<path d="M17.9708 13.0251C17.7601 11.7478 16.4429 10.2598 15.0504 9.67921C15.7248 8.98248 16.1042 8.00707 16.1042 6.94871C16.1042 5.09078 14.8502 3.47504 13.1732 3.20796L12.8571 3.1499L12.973 3.54471C13.0257 3.71889 13.0573 3.85824 13.11 4.07887L13.1416 4.21821L13.268 4.25305C14.4181 4.55662 15.2295 5.67138 15.2295 6.95037C15.2295 7.97223 14.7132 8.91281 13.8913 9.37895L13.7648 9.44863L13.7859 9.6112C13.7964 9.7157 13.807 9.8086 13.8175 9.9015C13.8175 9.97117 13.828 10.0525 13.8386 10.1337L13.8596 10.2847L14.0177 10.3311C15.1031 10.6447 16.5166 11.6665 17.0014 12.841C17.0541 12.9571 17.2754 13.5493 16.9276 13.7816C16.8644 13.828 16.7906 13.8513 16.7169 13.8745C16.5588 13.9325 16.3375 14.0022 16.2954 14.2809C16.2743 14.4319 16.3059 14.5828 16.3902 14.6873C16.4745 14.7918 16.5904 14.8499 16.7274 14.8499C16.7801 14.8499 16.8328 14.8383 16.8749 14.8267C17.6969 14.5812 18.1184 13.9077 17.9708 13.0251Z" fill="#959595"/>
</svg>
