<svg width="21" height="17" viewBox="0 0 21 17" fill="none" xmlns="http://www.w3.org/2000/svg">
<path d="M12.3143 9.48318C13.4393 8.45642 14.0693 7.02789 14.0693 5.47818C14.0693 2.4553 11.5943 0 8.54707 0C5.49989 0 3.02486 2.45742 3.02486 5.47818C3.02486 7.04064 3.66987 8.50106 4.82488 9.52782C2.09485 10.6141 0.234822 12.8483 0.0248191 14.4108C-0.170183 15.8988 0.81983 16.7045 1.73484 16.9426C1.80984 16.9575 1.89984 16.9724 1.97484 16.9724C2.36485 16.9724 2.67985 16.7194 2.72485 16.3771C2.76985 15.9754 2.39485 15.7819 2.09485 15.6331C2.04985 15.6034 1.98984 15.5885 1.94484 15.5587C1.73484 15.4397 1.25484 15.0825 1.52484 14.2343C1.92984 12.9674 3.87987 11.1668 6.19204 10.4355C6.92705 10.8076 7.64706 10.9712 8.56207 10.9712C9.49209 10.9712 10.1821 10.8224 10.9021 10.4653C13.4543 11.4623 14.8493 12.5486 15.5693 14.0983C15.6893 14.3513 16.0193 15.1846 15.4343 15.5268C15.3293 15.5863 15.2093 15.631 15.0893 15.6607C14.8343 15.7352 14.4893 15.8542 14.4443 16.2262C14.4143 16.4345 14.4593 16.6429 14.5943 16.7768C14.7143 16.9256 14.9093 17 15.1043 17C15.1793 17 15.2543 16.9851 15.3443 16.9702C16.6943 16.6131 17.3543 15.6459 17.1293 14.3789C16.7415 12.4912 14.5793 10.3165 12.3143 9.48318ZM12.6293 5.47818C12.6293 7.78467 10.8742 9.52782 8.54707 9.52782C6.22204 9.52782 4.46488 7.78679 4.46488 5.47818C4.46488 3.17169 6.2199 1.42854 8.54707 1.42854C10.8742 1.43066 12.6293 3.17169 12.6293 5.47818Z" fill="#959595"/>
<path d="M20.9586 13.9495C20.6586 12.3127 18.7836 10.4058 16.8014 9.66181C17.7614 8.76897 18.3014 7.519 18.3014 6.16275C18.3014 3.78186 16.5164 1.71133 14.1292 1.36908L13.6792 1.29468L13.8442 1.80062C13.9192 2.02383 13.9642 2.20239 14.0392 2.48512L14.0842 2.66369L14.2642 2.70833C15.9014 3.09735 17.0564 4.52589 17.0564 6.16487C17.0564 7.47436 16.3214 8.67969 15.1514 9.27704L14.9714 9.36632L15.0014 9.57465C15.0164 9.70857 15.0314 9.82762 15.0464 9.94666C15.0464 10.0359 15.0614 10.1401 15.0764 10.2443L15.1064 10.4377L15.3314 10.4972C16.8764 10.899 18.8886 12.2085 19.5786 13.7136C19.6536 13.8624 19.9686 14.6213 19.4736 14.9189C19.3836 14.9784 19.2786 15.0082 19.1736 15.0379C18.9486 15.1123 18.6336 15.2016 18.5736 15.5588C18.5436 15.7522 18.5886 15.9457 18.7086 16.0796C18.8286 16.2135 18.9936 16.2879 19.1886 16.2879C19.2636 16.2879 19.3386 16.273 19.3986 16.2581C20.5686 15.9435 21.1686 15.0805 20.9586 13.9495Z" fill="#959595"/>
</svg>
