<svg width="16" height="16" viewBox="0 0 16 16" fill="none" xmlns="http://www.w3.org/2000/svg">
<path d="M14.125 0H1.875C0.841125 0 0 0.841125 0 1.875V14.125C0 15.1589 0.841125 16 1.875 16H14.125C15.1589 16 16 15.1589 16 14.125V1.875C16 0.841125 15.1589 0 14.125 0ZM1.875 1.25H14.125C14.4696 1.25 14.75 1.53038 14.75 1.875V11.0536L12.6227 8.92631C11.8916 8.19525 10.7021 8.19525 9.97103 8.92631L9.28125 9.61613L7.34144 7.67631C6.61041 6.94525 5.42087 6.94525 4.68978 7.67631L1.25 11.1161V1.875C1.25 1.53038 1.53038 1.25 1.875 1.25V1.25ZM14.125 14.75H1.875C1.53038 14.75 1.25 14.4696 1.25 14.125V12.8839L5.57366 8.56022C5.81741 8.31653 6.21384 8.31653 6.45753 8.56022L9.28125 11.3839L10.8549 9.81019C11.0986 9.5665 11.4951 9.5665 11.7388 9.81019L14.75 12.8214V14.125C14.75 14.4696 14.4696 14.75 14.125 14.75ZM10.125 6.25C11.1589 6.25 12 5.40887 12 4.375C12 3.34113 11.1589 2.5 10.125 2.5C9.09113 2.5 8.25 3.34113 8.25 4.375C8.25 5.40887 9.09113 6.25 10.125 6.25ZM10.125 3.75C10.4696 3.75 10.75 4.03038 10.75 4.375C10.75 4.71962 10.4696 5 10.125 5C9.78038 5 9.5 4.71962 9.5 4.375C9.5 4.03038 9.78038 3.75 10.125 3.75Z" fill="#959595"/>
</svg>
