<svg width="20" height="20" viewBox="0 0 20 20" fill="none" xmlns="http://www.w3.org/2000/svg">
<path d="M14.2565 2.74773C15.4035 2.74773 16.4817 3.19448 17.2928 4.00542C18.967 5.67957 18.967 8.40373 17.2928 10.0781L13.0251 14.3458L9.9888 17.3819L6.95247 14.3456L2.68478 10.0779C1.01063 8.40373 1.01063 5.67957 2.68478 4.0052C3.49573 3.19426 4.57406 2.74751 5.72111 2.74751C6.86817 2.74751 7.94628 3.19426 8.75745 4.0052L9.05755 4.3053L9.9888 5.23677L10.9201 4.30552L11.2202 4.00542C12.0313 3.19426 13.1097 2.74773 14.2565 2.74773ZM14.2565 1.43054C12.8205 1.43054 11.3844 1.97827 10.2889 3.07395L9.9888 3.37405L9.6887 3.07395C8.59302 1.97827 7.15707 1.43054 5.72111 1.43054C4.28516 1.43054 2.84899 1.97827 1.75331 3.07395C-0.438053 5.26531 -0.438053 8.81799 1.75331 11.0093L6.02099 15.277C6.02099 15.277 6.02099 15.277 6.02121 15.277L9.9888 19.2448L13.9564 15.2773L18.2241 11.0096C20.4154 8.81821 20.4154 5.26553 18.2241 3.07417C17.1286 1.97827 15.6927 1.43054 14.2565 1.43054Z" fill="#8A2FFF"/>
</svg>
