<svg width="15" height="15" viewBox="0 0 15 15" fill="none" xmlns="http://www.w3.org/2000/svg">
<path d="M14.8167 13.9338L10.5511 9.66826C11.3774 8.64765 11.8749 7.35078 11.8749 5.9383C11.8749 2.66459 9.21114 0.000854492 5.93742 0.000854492C2.6637 0.000854492 0 2.66456 0 5.93828C0 9.21199 2.66373 11.8757 5.93745 11.8757C7.34993 11.8757 8.6468 11.3782 9.66741 10.552L13.933 14.8176C14.0549 14.9394 14.2149 15.0007 14.3749 15.0007C14.5349 15.0007 14.6949 14.9394 14.8168 14.8176C15.0611 14.5732 15.0611 14.1782 14.8167 13.9338ZM5.93745 10.6257C3.35247 10.6257 1.25 8.52326 1.25 5.93828C1.25 3.35329 3.35247 1.25082 5.93745 1.25082C8.52244 1.25082 10.6249 3.35329 10.6249 5.93828C10.6249 8.52326 8.52241 10.6257 5.93745 10.6257Z" fill="#959595"/>
</svg>
