<svg width="19" height="17" viewBox="0 0 19 17" fill="none" xmlns="http://www.w3.org/2000/svg">
<path d="M9.50001 0C4.26278 0 0 3.47697 0 7.75078C0 9.91556 1.08572 11.9457 3.00336 13.4061C2.394 14.3553 1.54986 15.4009 0.515715 15.658C0.188643 15.7395 -0.0298572 16.0496 0.00407144 16.3854C0.0366429 16.7227 0.3135 16.9824 0.650072 16.9973C0.666357 16.9973 0.726073 17 0.822429 17C1.52679 17 4.23429 16.8872 7.3055 15.2908C8.00579 15.4308 8.74272 15.5015 9.50001 15.5015C14.7373 15.5015 19 12.0246 19 7.75078C19 3.47697 14.7373 0 9.50001 0ZM9.50001 14.1418C8.75358 14.1418 8.03294 14.0642 7.35572 13.9106C7.19694 13.874 7.02865 13.897 6.88343 13.9759C5.56972 14.6857 4.31165 15.0937 3.27751 15.3275C3.75657 14.7673 4.15694 14.1418 4.49758 13.5639C4.68215 13.2511 4.58715 12.8487 4.2845 12.6501C2.42386 11.429 1.35715 9.6436 1.35715 7.75078C1.35715 4.22621 5.00922 1.35978 9.50001 1.35978C13.9908 1.35978 17.6429 4.22621 17.6429 7.75078C17.6429 11.274 13.9908 14.1418 9.50001 14.1418Z" fill="#959595"/>
</svg>
