<svg width="18" height="18" viewBox="0 0 18 18" fill="none" xmlns="http://www.w3.org/2000/svg">
<path d="M9.00001 1.19995C4.03843 1.19995 0 4.39059 0 8.31244C0 10.2989 1.02857 12.1619 2.84529 13.502C2.268 14.373 1.46829 15.3326 0.488572 15.5685C0.178714 15.6432 -0.0282858 15.9278 0.00385715 16.236C0.0347144 16.5455 0.297 16.7838 0.615857 16.7975C0.631286 16.7975 0.687858 16.8 0.779143 16.8C1.44643 16.8 4.01143 16.6964 6.921 15.2315C7.58443 15.36 8.28258 15.4249 9.00001 15.4249C13.9616 15.4249 18 12.2343 18 8.31244C18 4.39059 13.9616 1.19995 9.00001 1.19995ZM9.00001 14.1771C8.29287 14.1771 7.61015 14.106 6.96858 13.965C6.81815 13.9313 6.65872 13.9525 6.52115 14.0249C5.27657 14.6762 4.08472 15.0506 3.10501 15.2652C3.55886 14.7511 3.93815 14.1771 4.26086 13.6468C4.43572 13.3598 4.34572 12.9905 4.059 12.8083C2.29629 11.6877 1.28572 10.0494 1.28572 8.31244C1.28572 5.07812 4.74558 2.44775 9.00001 2.44775C13.2544 2.44775 16.7143 5.07812 16.7143 8.31244C16.7143 11.5455 13.2544 14.1771 9.00001 14.1771Z" fill="#959595"/>
</svg>
