<svg width="15" height="15" viewBox="0 0 15 15" fill="none" xmlns="http://www.w3.org/2000/svg">
<path d="M7.50001 1C3.36536 1 0 3.65886 0 6.92707C0 8.58249 0.857143 10.135 2.37107 11.2517C1.89 11.9776 1.22358 12.7772 0.407143 12.9738C0.148928 13.0361 -0.0235715 13.2732 0.00321429 13.53C0.0289286 13.7879 0.2475 13.9865 0.513214 13.9979C0.526072 13.9979 0.573215 14 0.649286 14C1.20536 14 3.34286 13.9137 5.7675 12.693C6.32036 12.8 6.90215 12.8541 7.50001 12.8541C11.6347 12.8541 15 10.1953 15 6.92707C15 3.65886 11.6347 1 7.50001 1ZM7.50001 11.8143C6.91072 11.8143 6.34179 11.755 5.80715 11.6375C5.68179 11.6095 5.54894 11.6271 5.43429 11.6874C4.39714 12.2302 3.40393 12.5422 2.5875 12.721C2.96571 12.2926 3.28179 11.8143 3.55072 11.3724C3.69644 11.1332 3.62143 10.8254 3.3825 10.6736C1.91358 9.7398 1.07143 8.37452 1.07143 6.92707C1.07143 4.23181 3.95465 2.03983 7.50001 2.03983C11.0453 2.03983 13.9286 4.23181 13.9286 6.92707C13.9286 9.62132 11.0453 11.8143 7.50001 11.8143Z" fill="#959595"/>
</svg>
