<svg width="16" height="16" viewBox="0 0 16 16" fill="none" xmlns="http://www.w3.org/2000/svg">
<g clip-path="url(#clip0)">
<path d="M15.8097 0.146558C15.6881 0.0391138 15.5271 -0.0124822 15.3657 0.00425891L5.08001 1.1471C4.79049 1.17915 4.57141 1.42383 4.57145 1.71509V11.8985C4.05355 11.5886 3.46071 11.4264 2.85716 11.4294C1.28173 11.4294 0 12.4546 0 13.7151C0 14.9757 1.28173 16.0008 2.85713 16.0008C4.43253 16.0008 5.71426 14.9763 5.71426 13.7151V5.08658L14.8571 4.06828V10.754C14.3391 10.4447 13.7462 10.283 13.1428 10.2866C11.5674 10.2866 10.2857 11.3117 10.2857 12.5723C10.2857 13.8328 11.5674 14.858 13.1428 14.858C14.7182 14.858 16 13.8334 16 12.5723V0.572283C16 0.409761 15.9308 0.25494 15.8097 0.146558Z" fill="#959595"/>
</g>
<defs>
<clipPath id="clip0">
<rect width="16" height="16" fill="white"/>
</clipPath>
</defs>
</svg>
