<svg width="15" height="15" viewBox="0 0 15 15" fill="none" xmlns="http://www.w3.org/2000/svg">
<path d="M14.726 3.28763L11.9131 0.292197C11.7371 0.104473 11.4983 0 11.2504 0H1.40649C0.633609 0 0 0.675808 0 1.50016V13.4966C0 14.3258 0.633609 15 1.40649 15H13.5935C14.371 15 15 14.3242 15 13.4966V3.99935C14.9985 3.73327 14.9021 3.47862 14.726 3.28763ZM14.0634 13.4966C14.0634 13.7724 13.8506 13.9977 13.5935 13.9977H1.40496C1.14631 13.9977 0.93817 13.7741 0.93817 13.4966V1.50016C0.93817 1.22429 1.1509 1.00229 1.40496 1.00229H10.7821V3.00196C10.7821 3.83121 11.4096 4.50212 12.1886 4.50212H14.0634V13.4966ZM12.187 3.99935C11.6728 3.99935 11.2504 3.55207 11.2504 3.00033H11.255V0.99902L14.0664 3.99771H12.187V3.99935ZM7.26508 3.4982H9.6082C9.73676 3.4982 9.84236 3.3872 9.84236 3.24845C9.84236 3.11133 9.73829 2.99869 9.6082 2.99869H7.26508C7.13652 2.99869 7.03092 3.1097 7.03092 3.24845C7.03245 3.3872 7.13499 3.4982 7.26508 3.4982ZM7.26508 4.99837H9.6082C9.73676 4.99837 9.84236 4.88736 9.84236 4.74861C9.84236 4.61149 9.73829 4.49886 9.6082 4.49886H7.26508C7.13652 4.49886 7.03092 4.60986 7.03092 4.74861C7.03245 4.88573 7.13499 4.99837 7.26508 4.99837ZM7.03245 6.24878C7.03245 6.3859 7.13652 6.49853 7.26661 6.49853H12.891C13.0196 6.49853 13.1252 6.38753 13.1252 6.24878C13.1252 6.11165 13.0211 5.99902 12.891 5.99902H7.26508C7.13499 5.99412 7.03245 6.11002 7.03245 6.24878ZM12.8926 8.99771H2.1105C1.98194 8.99771 1.87634 9.10872 1.87634 9.24747C1.87634 9.38459 1.98041 9.49722 2.1105 9.49722H12.8895C13.0181 9.49722 13.1237 9.38622 13.1237 9.24747C13.1237 9.10708 13.0181 8.99771 12.8926 8.99771ZM12.8926 10.4979H2.1105C1.98194 10.4979 1.87634 10.6089 1.87634 10.7476C1.87634 10.8848 1.98041 10.9974 2.1105 10.9974H12.8895C13.0181 10.9974 13.1237 10.8815 13.1237 10.7476C13.1237 10.6072 13.0181 10.4979 12.8926 10.4979ZM12.8926 11.998H2.1105C1.98194 11.998 1.87634 12.109 1.87634 12.2478C1.87634 12.3849 1.98041 12.4943 2.1105 12.4943H12.8895C13.0181 12.4943 13.1237 12.3833 13.1237 12.2478C13.1237 12.1074 13.0181 11.998 12.8926 11.998ZM12.8926 7.49918H2.1105C1.98194 7.49918 1.87634 7.61019 1.87634 7.74894C1.87634 7.88606 1.98041 7.99869 2.1105 7.99869H12.8895C13.0181 7.99869 13.1237 7.88769 13.1237 7.74894C13.1237 7.61019 13.0181 7.49918 12.8926 7.49918ZM2.34466 6.50016H5.62596C5.8846 6.50016 6.09581 6.27326 6.09581 5.99902V3.00033C6.09581 2.72445 5.88307 2.49918 5.62596 2.49918H2.34466C2.08448 2.49918 1.87481 2.72609 1.87481 3.00033V5.99902C1.87481 6.27489 2.08448 6.50016 2.34466 6.50016ZM2.81145 3.4982H5.15152V5.49788H2.81145V3.4982V3.4982Z" fill="#959595"/>
</svg>
