<svg width="20" height="20" viewBox="0 0 20 20" fill="none" xmlns="http://www.w3.org/2000/svg">
<path d="M19.6347 4.3835L15.8841 0.389596C15.6494 0.139297 15.3311 0 15.0005 0H1.87532C0.844812 0 0 0.901077 0 2.00022V17.9954C0 19.1011 0.844812 20 1.87532 20H18.1247C19.1613 20 20 19.0989 20 17.9954V5.33246C19.998 4.97769 19.8694 4.63815 19.6347 4.3835ZM18.7511 17.9954C18.7511 18.3633 18.4675 18.6636 18.1247 18.6636H1.87328C1.52842 18.6636 1.25089 18.3654 1.25089 17.9954V2.00022C1.25089 1.63239 1.53454 1.33638 1.87328 1.33638H14.3761V4.00261C14.3761 5.10828 15.2127 6.00283 16.2514 6.00283H18.7511V17.9954ZM16.2494 5.33246C15.5637 5.33246 15.0005 4.7361 15.0005 4.00044H15.0066V1.33203L18.7552 5.33029H16.2494V5.33246ZM9.68677 4.66427H12.8109C12.9823 4.66427 13.1232 4.51627 13.1232 4.33127C13.1232 4.14844 12.9844 3.99826 12.8109 3.99826H9.68677C9.51536 3.99826 9.37455 4.14626 9.37455 4.33127C9.37659 4.51627 9.51332 4.66427 9.68677 4.66427ZM9.68677 6.66449H12.8109C12.9823 6.66449 13.1232 6.51649 13.1232 6.33148C13.1232 6.14866 12.9844 5.99848 12.8109 5.99848H9.68677C9.51536 5.99848 9.37455 6.14648 9.37455 6.33148C9.37659 6.51431 9.51332 6.66449 9.68677 6.66449ZM9.37659 8.3317C9.37659 8.51453 9.51536 8.66471 9.68881 8.66471H17.188C17.3595 8.66471 17.5003 8.5167 17.5003 8.3317C17.5003 8.14887 17.3615 7.99869 17.188 7.99869H9.68677C9.51332 7.99216 9.37659 8.1467 9.37659 8.3317ZM17.1901 11.997H2.814C2.64259 11.997 2.50179 12.145 2.50179 12.33C2.50179 12.5128 2.64055 12.663 2.814 12.663H17.186C17.3574 12.663 17.4982 12.515 17.4982 12.33C17.4982 12.1428 17.3574 11.997 17.1901 11.997ZM17.1901 13.9972H2.814C2.64259 13.9972 2.50179 14.1452 2.50179 14.3302C2.50179 14.513 2.64055 14.6632 2.814 14.6632H17.186C17.3574 14.6632 17.4982 14.5087 17.4982 14.3302C17.4982 14.143 17.3574 13.9972 17.1901 13.9972ZM17.1901 15.9974H2.814C2.64259 15.9974 2.50179 16.1454 2.50179 16.3304C2.50179 16.5132 2.64055 16.659 2.814 16.659H17.186C17.3574 16.659 17.4982 16.511 17.4982 16.3304C17.4982 16.1432 17.3574 15.9974 17.1901 15.9974ZM17.1901 9.99891H2.814C2.64259 9.99891 2.50179 10.1469 2.50179 10.3319C2.50179 10.5147 2.64055 10.6649 2.814 10.6649H17.186C17.3574 10.6649 17.4982 10.5169 17.4982 10.3319C17.4982 10.1469 17.3574 9.99891 17.1901 9.99891ZM3.12621 8.66688H7.50128C7.84614 8.66688 8.12774 8.36435 8.12774 7.99869V4.00044C8.12774 3.6326 7.8441 3.33225 7.50128 3.33225H3.12621C2.77931 3.33225 2.49975 3.63478 2.49975 4.00044V7.99869C2.49975 8.36653 2.77931 8.66688 3.12621 8.66688ZM3.7486 4.66427H6.86869V7.3305H3.7486V4.66427V4.66427Z" fill="#959595"/>
</svg>
