<svg width="18" height="18" viewBox="0 0 18 18" fill="none" xmlns="http://www.w3.org/2000/svg">
<path d="M17.6713 3.94515L14.2957 0.350637C14.0845 0.125367 13.798 0 13.5005 0H1.68779C0.760331 0 0 0.810969 0 1.8002V16.1959C0 17.191 0.760331 18 1.68779 18H16.3122C17.2452 18 18 17.189 18 16.1959V4.79922C17.9982 4.47992 17.8825 4.17434 17.6713 3.94515ZM16.876 16.1959C16.876 16.5269 16.6208 16.7973 16.3122 16.7973H1.68595C1.37557 16.7973 1.1258 16.5289 1.1258 16.1959V1.8002C1.1258 1.46915 1.38108 1.20274 1.68595 1.20274H12.9385V3.60235C12.9385 4.59745 13.6915 5.40255 14.6263 5.40255H16.876V16.1959ZM14.6244 4.79922C14.0073 4.79922 13.5005 4.26249 13.5005 3.60039H13.506V1.19882L16.8797 4.79726H14.6244V4.79922ZM8.71809 4.19785H11.5298C11.6841 4.19785 11.8108 4.06464 11.8108 3.89814C11.8108 3.73359 11.6859 3.59843 11.5298 3.59843H8.71809C8.56382 3.59843 8.4371 3.73164 8.4371 3.89814C8.43893 4.06464 8.56198 4.19785 8.71809 4.19785ZM8.71809 5.99804H11.5298C11.6841 5.99804 11.8108 5.86484 11.8108 5.69833C11.8108 5.53379 11.6859 5.39863 11.5298 5.39863H8.71809C8.56382 5.39863 8.4371 5.53183 8.4371 5.69833C8.43893 5.86288 8.56198 5.99804 8.71809 5.99804ZM8.43893 7.49853C8.43893 7.66307 8.56382 7.79824 8.71993 7.79824H15.4692C15.6235 7.79824 15.7502 7.66503 15.7502 7.49853C15.7502 7.33399 15.6253 7.19882 15.4692 7.19882H8.71809C8.56198 7.19295 8.43893 7.33203 8.43893 7.49853ZM15.4711 10.7973H2.5326C2.37833 10.7973 2.25161 10.9305 2.25161 11.097C2.25161 11.2615 2.37649 11.3967 2.5326 11.3967H15.4674C15.6217 11.3967 15.7484 11.2635 15.7484 11.097C15.7484 10.9285 15.6217 10.7973 15.4711 10.7973ZM15.4711 12.5975H2.5326C2.37833 12.5975 2.25161 12.7307 2.25161 12.8972C2.25161 13.0617 2.37649 13.1969 2.5326 13.1969H15.4674C15.6217 13.1969 15.7484 13.0578 15.7484 12.8972C15.7484 12.7287 15.6217 12.5975 15.4711 12.5975ZM15.4711 14.3976H2.5326C2.37833 14.3976 2.25161 14.5309 2.25161 14.6974C2.25161 14.8619 2.37649 14.9931 2.5326 14.9931H15.4674C15.6217 14.9931 15.7484 14.8599 15.7484 14.6974C15.7484 14.5289 15.6217 14.3976 15.4711 14.3976ZM15.4711 8.99902H2.5326C2.37833 8.99902 2.25161 9.13222 2.25161 9.29873C2.25161 9.46327 2.37649 9.59843 2.5326 9.59843H15.4674C15.6217 9.59843 15.7484 9.46523 15.7484 9.29873C15.7484 9.13222 15.6217 8.99902 15.4711 8.99902ZM2.81359 7.8002H6.75115C7.06152 7.8002 7.31497 7.52791 7.31497 7.19882V3.60039C7.31497 3.26934 7.05969 2.99902 6.75115 2.99902H2.81359C2.50138 2.99902 2.24977 3.2713 2.24977 3.60039V7.19882C2.24977 7.52987 2.50138 7.8002 2.81359 7.8002ZM3.37374 4.19785H6.18182V6.59745H3.37374V4.19785V4.19785Z" fill="#959595"/>
</svg>
