<svg width="22" height="6" viewBox="0 0 22 6" fill="none" xmlns="http://www.w3.org/2000/svg">
<path d="M18.7754 0C16.9972 0 15.5507 1.34579 15.5507 2.99996C15.5507 4.65422 16.9972 6 18.7754 6C20.5534 6 22 4.65422 22 2.99996C22 1.34579 20.5534 0 18.7754 0ZM18.7754 4.82242C17.6952 4.82242 16.8163 4.00488 16.8163 2.99996C16.8163 1.99508 17.6952 1.17751 18.7754 1.17751C19.8555 1.17751 20.7342 1.99508 20.7342 2.99996C20.7342 4.00488 19.8555 4.82242 18.7754 4.82242ZM10.8006 0C9.02249 0 7.57593 1.34579 7.57593 2.99996C7.57593 4.65422 9.02247 6 10.8006 6C12.5786 6 14.0252 4.65422 14.0252 2.99996C14.0252 1.34579 12.5786 0 10.8006 0ZM10.8006 4.82242C9.72041 4.82242 8.84165 4.00488 8.84165 2.99996C8.84165 1.99508 9.72041 1.17751 10.8006 1.17751C11.8808 1.17751 12.7595 1.99508 12.7595 2.99996C12.7595 4.00488 11.8808 4.82242 10.8006 4.82242ZM3.22463 0C1.44656 0 0 1.34579 0 2.99996C0 4.65422 1.44656 6 3.22463 6C5.0027 6 6.44927 4.65422 6.44927 2.99996C6.44927 1.34579 5.00273 0 3.22463 0ZM3.22463 4.82242C2.14448 4.82242 1.2657 4.00488 1.2657 2.99996C1.2657 1.99508 2.14448 1.17751 3.22463 1.17751C4.30479 1.17751 5.18357 1.99508 5.18357 2.99996C5.18357 4.00488 4.30479 4.82242 3.22463 4.82242Z" fill="#959595"/>
</svg>
