<svg width="18" height="18" viewBox="0 0 18 18" fill="none" xmlns="http://www.w3.org/2000/svg">
<path d="M9 18C7.21997 18 5.47991 17.4722 3.99987 16.4832C2.51983 15.4943 1.36628 14.0887 0.685088 12.4442C0.00389956 10.7996 -0.17433 8.99002 0.172937 7.24419C0.520203 5.49836 1.37737 3.89471 2.63604 2.63604C3.89471 1.37737 5.49836 0.520203 7.24419 0.172937C8.99002 -0.17433 10.7996 0.00389956 12.4442 0.685088C14.0887 1.36628 15.4943 2.51983 16.4832 3.99987C17.4722 5.47991 18 7.21997 18 9C18 11.3869 17.0518 13.6761 15.364 15.364C13.6761 17.0518 11.3869 18 9 18V18ZM9 1.38462C7.49382 1.38462 6.02146 1.83125 4.76912 2.66804C3.51678 3.50483 2.5407 4.69419 1.96431 6.08572C1.38792 7.47725 1.23711 9.00845 1.53095 10.4857C1.82479 11.9629 2.55008 13.3199 3.61511 14.3849C4.68014 15.4499 6.03708 16.1752 7.51431 16.4691C8.99155 16.7629 10.5228 16.6121 11.9143 16.0357C13.3058 15.4593 14.4952 14.4832 15.332 13.2309C16.1688 11.9785 16.6154 10.5062 16.6154 9C16.6154 6.98028 15.8131 5.04327 14.3849 3.61511C12.9567 2.18695 11.0197 1.38462 9 1.38462Z" fill="#959595"/>
<path d="M9.00005 9.69236C8.31542 9.69236 7.64617 9.48935 7.07693 9.10899C6.50768 8.72863 6.064 8.18801 5.80201 7.5555C5.54001 6.92299 5.47146 6.22699 5.60503 5.55551C5.73859 4.88404 6.06827 4.26725 6.55238 3.78315C7.03648 3.29904 7.65327 2.96937 8.32474 2.8358C8.99621 2.70224 9.69221 2.77079 10.3247 3.03278C10.9572 3.29478 11.4979 3.73845 11.8782 4.3077C12.2586 4.87695 12.4616 5.5462 12.4616 6.23083C12.4616 7.14888 12.0969 8.02934 11.4477 8.6785C10.7986 9.32767 9.91811 9.69236 9.00005 9.69236ZM9.00005 4.1539C8.58928 4.1539 8.18772 4.27571 7.84618 4.50393C7.50463 4.73214 7.23842 5.05651 7.08123 5.43602C6.92403 5.81553 6.8829 6.23313 6.96304 6.63601C7.04318 7.0389 7.24098 7.40897 7.53145 7.69943C7.82191 7.98989 8.19198 8.1877 8.59486 8.26784C8.99775 8.34798 9.41535 8.30685 9.79486 8.14965C10.1744 7.99245 10.4987 7.72625 10.727 7.3847C10.9552 7.04315 11.077 6.6416 11.077 6.23083C11.077 5.67999 10.8582 5.15172 10.4687 4.76222C10.0792 4.37272 9.55089 4.1539 9.00005 4.1539Z" fill="#959595"/>
<path d="M15.6116 14.5384C15.5155 14.539 15.4204 14.5197 15.3321 14.4815C15.2439 14.4434 15.1647 14.3873 15.0993 14.3168C14.3645 13.5153 13.4713 12.875 12.4762 12.4365C11.4812 11.9979 10.4059 11.7707 9.31854 11.7692H8.68162C6.65469 11.7648 4.70561 12.5494 3.24701 13.9568C3.11224 14.0681 2.94041 14.1242 2.76598 14.114C2.59156 14.1038 2.42744 14.028 2.30654 13.9019C2.18565 13.7757 2.11693 13.6085 2.11416 13.4338C2.11139 13.2591 2.17479 13.0898 2.29162 12.9599C4.00569 11.3032 6.29777 10.3794 8.68162 10.3845H9.31854C10.5967 10.3874 11.8604 10.6546 13.0304 11.1693C14.2003 11.684 15.2512 12.435 16.117 13.3753C16.2085 13.4739 16.2692 13.5971 16.2919 13.7297C16.3145 13.8623 16.298 13.9986 16.2444 14.122C16.1907 14.2454 16.1024 14.3504 15.99 14.4244C15.8776 14.4983 15.7461 14.538 15.6116 14.5384V14.5384Z" fill="#959595"/>
</svg>
