<svg width="20" height="20" viewBox="0 0 20 20" fill="none" xmlns="http://www.w3.org/2000/svg">
<path d="M10 20C8.02219 20 6.08879 19.4135 4.4443 18.3147C2.79981 17.2159 1.51809 15.6541 0.761209 13.8268C0.00433284 11.9996 -0.1937 9.98891 0.192152 8.0491C0.578004 6.10929 1.53041 4.32746 2.92894 2.92894C4.32746 1.53041 6.10929 0.578004 8.0491 0.192152C9.98891 -0.1937 11.9996 0.00433284 13.8268 0.761209C15.6541 1.51809 17.2159 2.79981 18.3147 4.4443C19.4135 6.08879 20 8.02219 20 10C20 12.6522 18.9464 15.1957 17.0711 17.0711C15.1957 18.9464 12.6522 20 10 20V20ZM10 1.53847C8.32647 1.53847 6.69052 2.03473 5.29902 2.96449C3.90753 3.89426 2.823 5.21577 2.18256 6.76191C1.54213 8.30806 1.37456 10.0094 1.70105 11.6508C2.02754 13.2921 2.83343 14.7998 4.01679 15.9832C5.20016 17.1666 6.70786 17.9725 8.34924 18.299C9.99062 18.6254 11.6919 18.4579 13.2381 17.8174C14.7842 17.177 16.1057 16.0925 17.0355 14.701C17.9653 13.3095 18.4615 11.6735 18.4615 10C18.4615 7.75586 17.5701 5.60364 15.9832 4.01679C14.3964 2.42995 12.2441 1.53847 10 1.53847Z" fill="#959595"/>
<path d="M10 10.7693C9.23933 10.7693 8.49571 10.5438 7.86322 10.1211C7.23072 9.69852 6.73775 9.09783 6.44664 8.39504C6.15554 7.69225 6.07937 6.91891 6.22777 6.17283C6.37618 5.42675 6.74249 4.74143 7.28038 4.20354C7.81828 3.66565 8.5036 3.29934 9.24968 3.15093C9.99576 3.00253 10.7691 3.07869 11.4719 3.3698C12.1747 3.66091 12.7754 4.15388 13.198 4.78637C13.6206 5.41887 13.8462 6.16248 13.8462 6.92318C13.8462 7.94324 13.441 8.92153 12.7197 9.64282C11.9984 10.3641 11.0201 10.7693 10 10.7693ZM10 4.61549C9.54361 4.61549 9.09744 4.75083 8.71794 5.00441C8.33844 5.25798 8.04266 5.61839 7.868 6.04007C7.69333 6.46174 7.64763 6.92574 7.73667 7.37339C7.82572 7.82104 8.0455 8.23223 8.36824 8.55497C8.69098 8.8777 9.10217 9.09749 9.54982 9.18653C9.99746 9.27557 10.4615 9.22987 10.8831 9.05521C11.3048 8.88055 11.6652 8.58476 11.9188 8.20527C12.1724 7.82577 12.3077 7.3796 12.3077 6.92318C12.3077 6.31114 12.0646 5.72417 11.6318 5.2914C11.199 4.85862 10.6121 4.61549 10 4.61549Z" fill="#959595"/>
<path d="M17.3461 16.1539C17.2394 16.1546 17.1336 16.1331 17.0356 16.0907C16.9376 16.0483 16.8495 15.986 16.7769 15.9077C15.9604 15.0171 14.968 14.3057 13.8624 13.8184C12.7568 13.3311 11.5621 13.0787 10.3538 13.0769H9.64615C7.394 13.0721 5.22836 13.9439 3.60769 15.5077C3.45795 15.6313 3.26703 15.6936 3.07322 15.6823C2.87941 15.671 2.69706 15.5868 2.56273 15.4466C2.42841 15.3065 2.35205 15.1207 2.34897 14.9266C2.3459 14.7325 2.41633 14.5444 2.54615 14.4C4.45067 12.5592 6.99742 11.5328 9.64615 11.5385H10.3538C11.774 11.5417 13.1782 11.8386 14.4781 12.4104C15.7781 12.9823 16.9457 13.8168 17.9077 14.8616C18.0093 14.9711 18.0768 15.108 18.102 15.2553C18.1271 15.4026 18.1088 15.5541 18.0492 15.6912C17.9896 15.8283 17.8914 15.945 17.7666 16.0272C17.6417 16.1094 17.4956 16.1534 17.3461 16.1539V16.1539Z" fill="#959595"/>
</svg>
