<svg width="15" height="15" viewBox="0 0 15 15" fill="none" xmlns="http://www.w3.org/2000/svg">
<path d="M7.5 15C6.01664 15 4.56659 14.5601 3.33323 13.736C2.09986 12.9119 1.13856 11.7406 0.570907 10.3701C0.00324963 8.99968 -0.145275 7.49168 0.144114 6.03682C0.433503 4.58197 1.14781 3.2456 2.1967 2.1967C3.2456 1.14781 4.58197 0.433503 6.03682 0.144114C7.49168 -0.145275 8.99968 0.00324963 10.3701 0.570907C11.7406 1.13856 12.9119 2.09986 13.736 3.33323C14.5601 4.56659 15 6.01664 15 7.5C15 9.48912 14.2098 11.3968 12.8033 12.8033C11.3968 14.2098 9.48912 15 7.5 15V15ZM7.5 1.15385C6.24485 1.15385 5.01789 1.52604 3.97427 2.22337C2.93065 2.92069 2.11725 3.91183 1.63692 5.07143C1.1566 6.23104 1.03092 7.50704 1.27579 8.73807C1.52066 9.96911 2.12507 11.0999 3.01259 11.9874C3.90012 12.8749 5.0309 13.4793 6.26193 13.7242C7.49296 13.9691 8.76896 13.8434 9.92857 13.3631C11.0882 12.8828 12.0793 12.0694 12.7766 11.0257C13.474 9.98212 13.8462 8.75515 13.8462 7.5C13.8462 5.8169 13.1775 4.20273 11.9874 3.01259C10.7973 1.82246 9.18311 1.15385 7.5 1.15385Z" fill="#959595"/>
<path d="M7.50003 8.07697C6.92951 8.07697 6.3718 7.90779 5.89743 7.59082C5.42306 7.27386 5.05333 6.82334 4.835 6.29625C4.61667 5.76915 4.55954 5.18916 4.67085 4.62959C4.78215 4.07003 5.05688 3.55605 5.4603 3.15262C5.86372 2.7492 6.37771 2.47447 6.93727 2.36317C7.49683 2.25186 8.07683 2.30899 8.60393 2.52732C9.13102 2.74565 9.58154 3.11538 9.8985 3.58975C10.2155 4.06412 10.3846 4.62183 10.3846 5.19236C10.3846 5.9574 10.0807 6.69112 9.53976 7.23209C8.99879 7.77306 8.26508 8.07697 7.50003 8.07697ZM7.50003 3.46159C7.15772 3.46159 6.82309 3.56309 6.53847 3.75327C6.25385 3.94345 6.03201 4.21376 5.90101 4.53002C5.77001 4.84628 5.73574 5.19428 5.80252 5.53001C5.8693 5.86575 6.03414 6.17414 6.27619 6.41619C6.51825 6.65825 6.82664 6.82309 7.16238 6.88987C7.49811 6.95665 7.84611 6.92237 8.16237 6.79138C8.47863 6.66038 8.74894 6.43854 8.93912 6.15392C9.12929 5.8693 9.2308 5.53467 9.2308 5.19236C9.2308 4.73333 9.04845 4.2931 8.72387 3.96852C8.39929 3.64393 7.95906 3.46159 7.50003 3.46159Z" fill="#959595"/>
<path d="M13.0097 12.1154C12.9296 12.1159 12.8503 12.0998 12.7768 12.068C12.7033 12.0362 12.6372 11.9895 12.5828 11.9307C11.9704 11.2628 11.2261 10.7292 10.3969 10.3638C9.56764 9.99833 8.67161 9.80897 7.76544 9.80767H7.23467C5.54556 9.80403 3.92133 10.4579 2.70583 11.6307C2.59352 11.7234 2.45033 11.7702 2.30498 11.7617C2.15962 11.7532 2.02285 11.6901 1.92211 11.5849C1.82137 11.4798 1.7641 11.3405 1.76179 11.1949C1.75948 11.0493 1.81231 10.9082 1.90967 10.8C3.33807 9.41937 5.24813 8.64955 7.23467 8.65383H7.76544C8.83057 8.65623 9.88369 8.87888 10.8587 9.30779C11.8336 9.73669 12.7093 10.3626 13.4308 11.1461C13.5071 11.2283 13.5577 11.3309 13.5765 11.4414C13.5954 11.5519 13.5816 11.6655 13.537 11.7684C13.4923 11.8712 13.4186 11.9587 13.325 12.0204C13.2313 12.082 13.1218 12.115 13.0097 12.1154V12.1154Z" fill="#959595"/>
</svg>
