<svg width="20" height="20" viewBox="0 0 20 20" fill="none" xmlns="http://www.w3.org/2000/svg">
<path d="M19.5472 9.25613L1.23568 0.0880111C1.09216 0.0161387 0.930954 -0.0126591 0.771468 0.0050855C0.611982 0.0228301 0.461019 0.0863604 0.336754 0.188027C0.218083 0.28762 0.129507 0.418385 0.0809836 0.565623C0.0324606 0.712861 0.0259147 0.870733 0.0620816 1.02149L2.52581 9.99791L0.028788 18.9493C-0.00514952 19.0752 -0.00911107 19.2073 0.017222 19.3351C0.0435551 19.4628 0.0994481 19.5825 0.180407 19.6847C0.261365 19.7868 0.36513 19.8685 0.483358 19.9232C0.601586 19.9779 0.730978 20.004 0.86113 19.9995C0.991426 19.9987 1.11972 19.9673 1.23568 19.9078L19.5472 10.7397C19.6835 10.6698 19.798 10.5635 19.8779 10.4326C19.9578 10.3017 20 10.1513 20 9.99791C20 9.84451 19.9578 9.69409 19.8779 9.56321C19.798 9.43233 19.6835 9.32607 19.5472 9.25613ZM2.15126 17.5908L3.99074 10.8314L18.3288 10.9077V9.25613L3.99074 9.16445L2.15126 2.40504L17.9192 10.1659L2.15126 17.5908Z" fill="#959595"/>
</svg>
