<svg width="20" height="20" viewBox="0 0 20 20" fill="none" xmlns="http://www.w3.org/2000/svg">
<g clip-path="url(#clip0_405_24)">
<path d="M11.5031 20.002H8.49935C8.31499 20.002 8.13714 19.9338 8.00007 19.8105C7.863 19.6873 7.77641 19.5176 7.75699 19.3343L7.53458 17.24C7.2241 17.1344 6.92078 17.0087 6.62653 16.8639L4.99005 18.1874C4.84682 18.3027 4.66604 18.3612 4.4824 18.3514C4.29875 18.3417 4.12516 18.2645 3.99492 18.1346L1.87083 16.0105C1.74098 15.8803 1.66379 15.7067 1.65405 15.5231C1.64432 15.3394 1.70273 15.1587 1.81809 15.0154L3.1421 13.377C2.99701 13.0827 2.87119 12.7794 2.76545 12.4689L0.667728 12.245C0.484478 12.2256 0.314888 12.1391 0.191609 12.0021C0.0683306 11.8651 8.05246e-05 11.6874 0 11.5031V8.49886C8.05246e-05 8.31458 0.0683306 8.13685 0.191609 7.99988C0.314888 7.86292 0.484478 7.7764 0.667728 7.75699L2.76197 7.53458C2.86771 7.22406 2.99353 6.92073 3.13862 6.62653L1.81461 4.98806C1.69925 4.84483 1.64084 4.66405 1.65057 4.48041C1.6603 4.29676 1.7375 4.12317 1.86735 3.99294L3.99144 1.86884C4.12167 1.73899 4.29526 1.6618 4.47891 1.65206C4.66256 1.64233 4.84334 1.70074 4.98657 1.8161L6.62504 3.13962C6.91929 2.99477 7.22261 2.86912 7.53309 2.76346L7.7555 0.669222C7.7746 0.485362 7.86125 0.315131 7.99867 0.191498C8.13609 0.0678655 8.3145 -0.000371813 8.49935 1.52387e-06H11.5031C11.6875 -4.08225e-05 11.8653 0.0681539 12.0024 0.191444C12.1395 0.314734 12.2261 0.484394 12.2455 0.667729L12.4674 2.76197C12.7781 2.86763 13.0815 2.99328 13.376 3.13812L15.0139 1.81461C15.1572 1.69925 15.3379 1.64084 15.5216 1.65057C15.7052 1.6603 15.8788 1.7375 16.0091 1.86735L18.1331 3.99144C18.263 4.12167 18.3402 4.29526 18.3499 4.47891C18.3597 4.66256 18.3012 4.84334 18.1859 4.98657L16.8619 6.62504C17.0068 6.91934 17.1326 7.22264 17.2385 7.53309L19.3328 7.7555C19.5159 7.77502 19.6854 7.86159 19.8086 7.99854C19.9318 8.1355 19.9999 8.31317 20 8.49736V11.5016C20.0004 11.6858 19.9326 11.8636 19.8098 12.0008C19.687 12.138 19.5178 12.225 19.3348 12.245L17.2405 12.4674C17.1346 12.7779 17.0088 13.0812 16.8639 13.3755L18.1879 15.0139C18.3032 15.1572 18.3617 15.3379 18.3519 15.5216C18.3422 15.7052 18.265 15.8788 18.1351 16.0091L16.011 18.1346C15.8808 18.2645 15.7072 18.3417 15.5236 18.3514C15.3399 18.3612 15.1592 18.3027 15.0159 18.1874L13.3779 16.8639C13.0835 17.0087 12.78 17.1344 12.4694 17.24L12.2475 19.3343C12.228 19.5179 12.1412 19.6879 12.0037 19.8112C11.8662 19.9346 11.6878 20.0025 11.5031 20.002ZM9.16957 18.5093H10.8309L11.0344 16.5907C11.0504 16.4405 11.1115 16.2987 11.2098 16.184C11.3081 16.0694 11.4388 15.9872 11.5847 15.9484C12.1104 15.8082 12.6151 15.5985 13.0854 15.3249C13.2163 15.2486 13.3674 15.214 13.5185 15.2256C13.6696 15.2373 13.8135 15.2946 13.9312 15.3901L15.4319 16.6026L16.6066 15.4279L15.3921 13.9317C15.2966 13.814 15.2393 13.6701 15.2276 13.519C15.216 13.3679 15.2506 13.2168 15.3269 13.0859C15.5999 12.6159 15.8089 12.1116 15.9484 11.5862C15.9872 11.4402 16.0695 11.3094 16.1842 11.2112C16.299 11.1129 16.4409 11.0518 16.5912 11.0359L18.5093 10.8319V9.17056L16.5912 8.96656C16.4409 8.95069 16.299 8.88959 16.1842 8.79133C16.0695 8.69307 15.9872 8.56228 15.9484 8.41626C15.809 7.89076 15.6 7.38624 15.3269 6.91611C15.2506 6.78518 15.216 6.63412 15.2276 6.48302C15.2393 6.33193 15.2966 6.18796 15.3921 6.07026L16.6046 4.56961L15.4299 3.39487L13.9292 4.60742C13.8115 4.70288 13.6676 4.76024 13.5165 4.77188C13.3654 4.78353 13.2143 4.7489 13.0834 4.67261C12.6133 4.39978 12.109 4.19079 11.5837 4.05115C11.4378 4.01233 11.3071 3.93015 11.2088 3.81546C11.1106 3.70077 11.0494 3.55897 11.0334 3.4088L10.8319 1.49269H9.16957L8.96607 3.41129C8.95007 3.56152 8.88884 3.70337 8.79049 3.81806C8.69215 3.93276 8.5613 4.0149 8.41527 4.05364C7.89038 4.19391 7.38655 4.40358 6.91711 4.67708C6.78617 4.75338 6.63511 4.788 6.48402 4.77636C6.33292 4.76472 6.18895 4.70736 6.07125 4.6119L4.5721 3.39735L3.39785 4.5721L4.61091 6.07274C4.70628 6.1905 4.76356 6.33449 4.77511 6.48559C4.78666 6.63668 4.75195 6.78771 4.67559 6.9186C4.40298 7.38878 4.19401 7.89307 4.05413 8.41825C4.01531 8.5642 3.93313 8.69493 3.81844 8.79318C3.70375 8.89144 3.56196 8.95259 3.41178 8.96855L1.49318 9.17256V10.8334L3.41178 11.0374C3.56196 11.0534 3.70375 11.1145 3.81844 11.2128C3.93313 11.311 4.01531 11.4418 4.05413 11.5877C4.19397 12.1124 4.40278 12.6161 4.67509 13.0859C4.75145 13.2168 4.78617 13.3678 4.77461 13.5189C4.76306 13.67 4.70578 13.814 4.61041 13.9317L3.39785 15.4299L4.57259 16.6046L6.07374 15.3921C6.19144 15.2966 6.33541 15.2393 6.48651 15.2276C6.6376 15.216 6.78866 15.2506 6.91959 15.3269C7.38945 15.5998 7.89362 15.8088 8.41875 15.9484C8.56479 15.9871 8.69563 16.0692 8.79398 16.1839C8.89232 16.2986 8.95355 16.4405 8.96955 16.5907L9.16957 18.5093Z" fill="#959595"/>
<path d="M10.001 14.5467C9.10197 14.5466 8.22315 14.2799 7.47568 13.7803C6.7282 13.2808 6.14564 12.5708 5.80166 11.7402C5.45768 10.9095 5.36773 9.99555 5.54319 9.1138C5.71864 8.23204 6.15162 7.42212 6.78737 6.78644C7.42312 6.15076 8.23309 5.71787 9.11486 5.54251C9.99663 5.36715 10.9106 5.4572 11.7412 5.80127C12.5718 6.14534 13.2817 6.72798 13.7812 7.47551C14.2806 8.22304 14.5472 9.10189 14.5472 10.0009C14.5459 11.2062 14.0665 12.3617 13.2142 13.214C12.3619 14.0662 11.2063 14.5455 10.001 14.5467V14.5467ZM10.001 6.94789C9.3972 6.94799 8.80697 7.12713 8.30497 7.46266C7.80296 7.79819 7.41173 8.27505 7.18072 8.83292C6.94972 9.3908 6.88933 10.0047 7.00719 10.5969C7.12505 11.189 7.41586 11.733 7.84286 12.1599C8.26985 12.5869 8.81385 12.8776 9.40607 12.9953C9.99829 13.1131 10.6121 13.0526 11.17 12.8215C11.7278 12.5904 12.2046 12.1991 12.5401 11.6971C12.8755 11.195 13.0545 10.6047 13.0545 10.0009C13.0536 9.19141 12.7316 8.41532 12.1591 7.84294C11.5867 7.27057 10.8105 6.94868 10.001 6.94789V6.94789Z" fill="#959595"/>
</g>
<defs>
<clipPath id="clip0_405_24">
<rect width="20" height="20" fill="white"/>
</clipPath>
</defs>
</svg>
