<svg width="15" height="15" viewBox="0 0 15 15" fill="none" xmlns="http://www.w3.org/2000/svg">
<g clip-path="url(#clip0_845_12)">
<path d="M8.62735 15.0015H6.37452C6.23624 15.0015 6.10286 14.9504 6.00005 14.8579C5.89725 14.7654 5.83231 14.6382 5.81774 14.5007L5.65094 12.93C5.41807 12.8508 5.19059 12.7565 4.9699 12.6479L3.74254 13.6405C3.63512 13.7271 3.49953 13.7709 3.3618 13.7636C3.22406 13.7563 3.09387 13.6984 2.99619 13.601L1.40312 12.0079C1.30574 11.9102 1.24784 11.78 1.24054 11.6423C1.23324 11.5046 1.27705 11.369 1.36357 11.2616L2.35658 10.0327C2.24776 9.81206 2.1534 9.58457 2.07409 9.35168L0.500796 9.18375C0.363359 9.16919 0.236166 9.1043 0.143707 9.00158C0.0512479 8.89885 6.03935e-05 8.76556 0 8.62735V6.37414C6.03935e-05 6.23594 0.0512479 6.10264 0.143707 5.99991C0.236166 5.89719 0.363359 5.8323 0.500796 5.81774L2.07147 5.65094C2.15078 5.41804 2.24515 5.19055 2.35397 4.9699L1.36096 3.74104C1.27444 3.63362 1.23063 3.49804 1.23793 3.3603C1.24523 3.22257 1.30312 3.09238 1.40051 2.9947L2.99358 1.40163C3.09126 1.30424 3.22145 1.24635 3.35918 1.23905C3.49692 1.23175 3.6325 1.27556 3.73992 1.36208L4.96878 2.35471C5.18947 2.24608 5.41695 2.15184 5.64982 2.07259L5.81662 0.501917C5.83095 0.364021 5.89594 0.236348 5.999 0.143624C6.10207 0.0508991 6.23588 -0.000278859 6.37452 1.1429e-06H8.62735C8.76562 -3.06169e-05 8.89901 0.0511154 9.00181 0.143583C9.10462 0.236051 9.16956 0.363296 9.18412 0.500797L9.35056 2.07148C9.58354 2.15072 9.81115 2.24496 10.032 2.35359L11.2604 1.36096C11.3679 1.27444 11.5035 1.23063 11.6412 1.23793C11.7789 1.24523 11.9091 1.30312 12.0068 1.40051L13.5999 2.99358C13.6972 3.09126 13.7551 3.22145 13.7624 3.35918C13.7697 3.49692 13.7259 3.6325 13.6394 3.73992L12.6464 4.96878C12.7551 5.1895 12.8494 5.41698 12.9289 5.64982L14.4996 5.81662C14.6369 5.83127 14.764 5.89619 14.8564 5.99891C14.9488 6.10162 15 6.23487 15 6.37302V8.62623C15.0003 8.76434 14.9495 8.89767 14.8574 9.00059C14.7653 9.10351 14.6384 9.16874 14.5011 9.18375L12.9304 9.35056C12.8509 9.58339 12.7566 9.81087 12.6479 10.0316L13.6409 11.2604C13.7274 11.3679 13.7712 11.5035 13.7639 11.6412C13.7566 11.7789 13.6987 11.9091 13.6014 12.0068L12.0083 13.601C11.9106 13.6984 11.7804 13.7563 11.6427 13.7636C11.5049 13.7709 11.3694 13.7271 11.2619 13.6405L10.0335 12.6479C9.81264 12.7565 9.58503 12.8508 9.35205 12.93L9.18561 14.5007C9.17102 14.6385 9.10587 14.7659 9.00275 14.8584C8.89963 14.9509 8.76588 15.0019 8.62735 15.0015ZM6.87718 13.882H8.1232L8.27582 12.443C8.2878 12.3304 8.33366 12.224 8.40735 12.138C8.48104 12.052 8.57909 11.9904 8.68855 11.9613C9.08283 11.8561 9.46133 11.6989 9.81404 11.4937C9.91224 11.4365 10.0255 11.4105 10.1389 11.4192C10.2522 11.428 10.3602 11.471 10.4484 11.5426L11.5739 12.452L12.455 11.5709L11.5441 10.4488C11.4725 10.3605 11.4294 10.2525 11.4207 10.1392C11.412 10.0259 11.438 9.91261 11.4952 9.81441C11.6999 9.46193 11.8567 9.08367 11.9613 8.68967C11.9904 8.58016 12.0521 8.48207 12.1382 8.40837C12.2243 8.33468 12.3307 8.28885 12.4434 8.27694L13.882 8.12394V6.87792L12.4434 6.72492C12.3307 6.71302 12.2243 6.66719 12.1382 6.59349C12.0521 6.5198 11.9904 6.42171 11.9613 6.31219C11.8567 5.91807 11.7 5.53968 11.4952 5.18708C11.438 5.08888 11.412 4.97559 11.4207 4.86227C11.4294 4.74895 11.4725 4.64097 11.5441 4.55269L12.4535 3.42721L11.5724 2.54615L10.4469 3.45557C10.3587 3.52716 10.2507 3.57018 10.1374 3.57891C10.024 3.58764 9.91075 3.56167 9.81254 3.50445C9.45999 3.29984 9.08175 3.14309 8.6878 3.03836C8.57835 3.00925 8.4803 2.94761 8.4066 2.86159C8.33292 2.77558 8.28705 2.66923 8.27508 2.5566L8.12394 1.11952H6.87718L6.72455 2.55846C6.71255 2.67114 6.66663 2.77752 6.59287 2.86355C6.51911 2.94957 6.42098 3.01118 6.31145 3.04023C5.91779 3.14544 5.53991 3.30268 5.18783 3.50781C5.08963 3.56503 4.97633 3.591 4.86301 3.58227C4.74969 3.57354 4.64171 3.53052 4.55344 3.45893L3.42907 2.54802L2.54839 3.42907L3.45818 4.55456C3.52971 4.64287 3.57267 4.75087 3.58133 4.86419C3.59 4.97751 3.56396 5.09078 3.50669 5.18895C3.30224 5.54158 3.1455 5.9198 3.0406 6.31369C3.01149 6.42315 2.94985 6.5212 2.86383 6.59489C2.77781 6.66858 2.67147 6.71444 2.55884 6.72642L1.11989 6.87942V8.12506L2.55884 8.27806C2.67147 8.29004 2.77781 8.3359 2.86383 8.40959C2.94985 8.48328 3.01149 8.58133 3.0406 8.69079C3.14548 9.08427 3.30208 9.46211 3.50632 9.81441C3.56359 9.91257 3.58963 10.0258 3.58096 10.1392C3.57229 10.2525 3.52934 10.3605 3.45781 10.4488L2.54839 11.5724L3.42945 12.4535L4.5553 11.5441C4.64358 11.4725 4.75156 11.4294 4.86488 11.4207C4.9782 11.412 5.09149 11.438 5.1897 11.4952C5.54209 11.6998 5.92021 11.8566 6.31406 11.9613C6.42359 11.9903 6.52172 12.0519 6.59548 12.1379C6.66924 12.224 6.71516 12.3303 6.72716 12.443L6.87718 13.882Z" fill="#8A2FFF"/>
<path d="M7.50075 10.91C6.82647 10.9099 6.16736 10.7099 5.60675 10.3353C5.04614 9.96061 4.60922 9.42812 4.35124 8.80515C4.09325 8.18217 4.02579 7.49669 4.15738 6.83538C4.28897 6.17406 4.61371 5.56662 5.09052 5.08986C5.56733 4.6131 6.17481 4.28843 6.83614 4.15691C7.49747 4.0254 8.18294 4.09293 8.80589 4.35098C9.42883 4.60904 9.96127 5.04602 10.3359 5.60666C10.7105 6.16731 10.9104 6.82645 10.9104 7.50073C10.9094 8.40469 10.5499 9.27134 9.91064 9.9105C9.2714 10.5497 8.40471 10.9091 7.50075 10.91ZM7.50075 5.21095C7.04789 5.21102 6.60522 5.34538 6.22872 5.59703C5.85222 5.84867 5.55879 6.20631 5.38554 6.62472C5.21228 7.04313 5.16699 7.50352 5.25539 7.94767C5.34378 8.39182 5.56189 8.79978 5.88214 9.11998C6.20238 9.44017 6.61038 9.65821 7.05455 9.74653C7.49871 9.83486 7.95909 9.78949 8.37747 9.61617C8.79585 9.44285 9.15344 9.14936 9.40503 8.77282C9.65662 8.39628 9.7909 7.95359 9.7909 7.50073C9.79021 6.89359 9.54869 6.31152 9.11935 5.88224C8.69 5.45296 8.10789 5.21154 7.50075 5.21095Z" fill="#8A2FFF"/>
</g>
<defs>
<clipPath id="clip0_845_12">
<rect width="15" height="15" fill="white"/>
</clipPath>
</defs>
</svg>
