<svg width="18" height="18" viewBox="0 0 18 18" fill="none" xmlns="http://www.w3.org/2000/svg">
<g clip-path="url(#clip0_405_24)">
<path d="M10.3528 18.0018H7.64942C7.48349 18.0018 7.32343 17.9404 7.20006 17.8295C7.0767 17.7185 6.99877 17.5658 6.98129 17.4008L6.78112 15.516C6.50169 15.4209 6.2287 15.3078 5.96388 15.1775L4.49104 16.3686C4.36214 16.4725 4.19944 16.525 4.03416 16.5163C3.86887 16.5075 3.71264 16.438 3.59543 16.3212L1.68375 14.4095C1.56688 14.2923 1.49741 14.1361 1.48865 13.9708C1.47989 13.8055 1.53246 13.6428 1.63628 13.5139L2.82789 12.0393C2.69731 11.7745 2.58408 11.5015 2.4889 11.222L0.600955 11.0205C0.43603 11.003 0.283399 10.9252 0.172448 10.8019C0.0614975 10.6786 7.24722e-05 10.5187 0 10.3528V7.64897C7.24722e-05 7.48312 0.0614975 7.32316 0.172448 7.1999C0.283399 7.07663 0.43603 6.99876 0.600955 6.98129L2.48577 6.78112C2.58094 6.50165 2.69418 6.22866 2.82476 5.96388L1.63315 4.48925C1.52933 4.36035 1.47675 4.19765 1.48551 4.03236C1.49427 3.86708 1.56375 3.71085 1.68061 3.59364L3.5923 1.68196C3.70951 1.56509 3.86574 1.49562 4.03102 1.48686C4.1963 1.4781 4.359 1.53067 4.48791 1.63449L5.96253 2.82565C6.22736 2.6953 6.50035 2.58221 6.77978 2.48711L6.97995 0.6023C6.99714 0.436826 7.07513 0.283618 7.1988 0.172348C7.32248 0.0610789 7.48305 -0.000334631 7.64942 1.37148e-06H10.3528C10.5187 -3.67403e-05 10.6788 0.0613385 10.8022 0.1723C10.9255 0.283261 11.0035 0.435955 11.0209 0.600956L11.2207 2.48577C11.5002 2.58087 11.7734 2.69395 12.0384 2.82431L13.5125 1.63315C13.6414 1.52933 13.8041 1.47675 13.9694 1.48551C14.1347 1.49427 14.2909 1.56375 14.4081 1.68062L16.3198 3.5923C16.4367 3.70951 16.5062 3.86574 16.5149 4.03102C16.5237 4.19631 16.4711 4.359 16.3673 4.48791L15.1757 5.96253C15.3061 6.2274 15.4193 6.50038 15.5147 6.77978L17.3995 6.97995C17.5643 6.99752 17.7169 7.07543 17.8277 7.19869C17.9386 7.32195 17.9999 7.48185 18 7.64763V10.3515C18.0003 10.5172 17.9394 10.6772 17.8288 10.8007C17.7183 10.9242 17.566 11.0025 17.4013 11.0205L15.5165 11.2207C15.4211 11.5001 15.3079 11.773 15.1775 12.0379L16.3691 13.5125C16.4729 13.6414 16.5255 13.8041 16.5167 13.9694C16.508 14.1347 16.4385 14.2909 16.3216 14.4081L14.4099 16.3212C14.2927 16.438 14.1365 16.5075 13.9712 16.5163C13.8059 16.525 13.6432 16.4725 13.5143 16.3686L12.0402 15.1775C11.7752 15.3078 11.502 15.4209 11.2225 15.516L11.0227 17.4008C11.0052 17.5661 10.927 17.7191 10.8033 17.8301C10.6796 17.9411 10.5191 18.0023 10.3528 18.0018ZM8.25261 16.6584H9.74784L9.93099 14.9316C9.94536 14.7965 10.0004 14.6689 10.0888 14.5656C10.1772 14.4624 10.2949 14.3885 10.4263 14.3535C10.8994 14.2273 11.3536 14.0387 11.7768 13.7924C11.8947 13.7238 12.0306 13.6926 12.1666 13.7031C12.3026 13.7135 12.4322 13.7652 12.5381 13.8511L13.8887 14.9424L14.946 13.8851L13.8529 12.5386C13.767 12.4326 13.7153 12.3031 13.7049 12.1671C13.6944 12.0311 13.7255 11.8951 13.7942 11.7773C14.0399 11.3543 14.228 10.9004 14.3535 10.4276C14.3885 10.2962 14.4625 10.1785 14.5658 10.09C14.6691 10.0016 14.7968 9.94661 14.9321 9.93233L16.6584 9.74873V8.25351L14.9321 8.06991C14.7968 8.05562 14.6691 8.00063 14.5658 7.91219C14.4625 7.82376 14.3885 7.70605 14.3535 7.57463C14.2281 7.10168 14.04 6.64762 13.7942 6.2245C13.7255 6.10666 13.6944 5.9707 13.7049 5.83472C13.7153 5.69873 13.767 5.56916 13.8529 5.46323L14.9442 4.11265L13.8869 3.05538L12.5363 4.14668C12.4304 4.23259 12.3008 4.28422 12.1648 4.29469C12.0288 4.30517 11.8929 4.27401 11.7751 4.20534C11.352 3.9598 10.8981 3.77171 10.4254 3.64603C10.294 3.6111 10.1764 3.53713 10.0879 3.43391C9.9995 3.33069 9.94446 3.20307 9.93009 3.06792L9.74873 1.34342H8.25261L8.06946 3.07016C8.05506 3.20537 7.99996 3.33303 7.91144 3.43626C7.82293 3.53948 7.70517 3.61341 7.57374 3.64827C7.10134 3.77452 6.64789 3.96322 6.22539 4.20937C6.10755 4.27804 5.9716 4.3092 5.83561 4.29872C5.69963 4.28825 5.57006 4.23662 5.46413 4.15071L4.11489 3.05762L3.05807 4.11489L4.14982 5.46547C4.23566 5.57145 4.2872 5.70104 4.2976 5.83703C4.308 5.97301 4.27676 6.10894 4.20803 6.22674C3.96268 6.6499 3.77461 7.10376 3.64872 7.57642C3.61378 7.70778 3.53982 7.82544 3.4366 7.91387C3.33338 8.00229 3.20576 8.05733 3.0706 8.0717L1.34387 8.2553V9.75007L3.0706 9.93367C3.20576 9.94804 3.33338 10.0031 3.4366 10.0915C3.53982 10.1799 3.61378 10.2976 3.64872 10.4289C3.77458 10.9011 3.9625 11.3545 4.20758 11.7773C4.27631 11.8951 4.30755 12.031 4.29715 12.167C4.28675 12.303 4.23521 12.4326 4.14937 12.5386L3.05807 13.8869L4.11533 14.9442L5.46636 13.8529C5.5723 13.767 5.70187 13.7153 5.83785 13.7049C5.97384 13.6944 6.10979 13.7255 6.22764 13.7942C6.65051 14.0398 7.10426 14.2279 7.57687 14.3535C7.70831 14.3884 7.82606 14.4623 7.91458 14.5655C8.00309 14.6688 8.05819 14.7964 8.07259 14.9316L8.25261 16.6584Z" fill="#959595"/>
<path d="M9.00092 13.092C8.19179 13.0919 7.40085 12.8519 6.72812 12.4023C6.0554 11.9527 5.53109 11.3137 5.22151 10.5661C4.91193 9.81856 4.83098 8.99598 4.98888 8.2024C5.14679 7.40883 5.53647 6.6799 6.10865 6.10778C6.68082 5.53567 7.4098 5.14607 8.20339 4.98825C8.99699 4.83043 9.81956 4.91147 10.5671 5.22113C11.3146 5.5308 11.9536 6.05517 12.4031 6.72795C12.8526 7.40072 13.0925 8.19169 13.0925 9.00082C13.0913 10.0856 12.6599 11.1256 11.8928 11.8926C11.1257 12.6595 10.0857 13.0909 9.00092 13.092V13.092ZM9.00092 6.25309C8.45749 6.25318 7.92629 6.4144 7.47449 6.71638C7.02268 7.01836 6.67057 7.44753 6.46267 7.94962C6.25477 8.45171 6.20042 9.00417 6.30649 9.53715C6.41256 10.0701 6.67429 10.5597 7.05859 10.9439C7.44288 11.3282 7.93248 11.5898 8.46548 11.6958C8.99848 11.8018 9.55093 11.7473 10.053 11.5394C10.555 11.3314 10.9842 10.9792 11.2861 10.5273C11.588 10.0755 11.7491 9.54425 11.7491 9.00082C11.7483 8.27225 11.4585 7.57377 10.9432 7.05864C10.428 6.5435 9.72949 6.2538 9.00092 6.25309V6.25309Z" fill="#959595"/>
</g>
<defs>
<clipPath id="clip0_405_24">
<rect width="18" height="18" fill="white"/>
</clipPath>
</defs>
</svg>
