<svg width="20" height="15" viewBox="0 0 20 15" fill="none" xmlns="http://www.w3.org/2000/svg">
<path d="M14.7364 8.1364L11.5869 11.2864C11.5033 11.3701 11.4041 11.4365 11.2949 11.4818C11.1857 11.5271 11.0687 11.5504 10.9504 11.5505C10.8322 11.5505 10.7151 11.5272 10.6059 11.482C10.4967 11.4368 10.3974 11.3705 10.3138 11.2868C10.2302 11.2032 10.1639 11.104 10.1187 10.9947C10.0735 10.8855 10.0502 10.7684 10.0503 10.6501C10.0503 10.5319 10.0736 10.4148 10.1189 10.3056C10.1642 10.1964 10.2306 10.0972 10.3143 10.0136L11.9276 8.4H5.69916C5.4605 8.4 5.23161 8.30518 5.06285 8.1364C4.8941 7.96761 4.79929 7.73869 4.79929 7.5C4.79929 7.2613 4.8941 7.03239 5.06285 6.8636C5.23161 6.69482 5.4605 6.6 5.69916 6.6H11.9276L10.3143 4.9864C10.2306 4.90285 10.1642 4.80363 10.1189 4.69441C10.0736 4.58519 10.0503 4.46811 10.0503 4.34987C10.0502 4.23163 10.0735 4.11453 10.1187 4.00528C10.1639 3.89603 10.2302 3.79676 10.3138 3.71315C10.3974 3.62954 10.4967 3.56323 10.6059 3.51799C10.7151 3.47276 10.8322 3.4495 10.9505 3.44955C11.0687 3.44959 11.1857 3.47293 11.2949 3.51824C11.4041 3.56354 11.5033 3.62993 11.5869 3.7136L14.7364 6.8636C14.82 6.94717 14.8863 7.04639 14.9315 7.15558C14.9767 7.26478 15 7.38181 15 7.5C15 7.61819 14.9767 7.73523 14.9315 7.84442C14.8863 7.95361 14.82 8.05283 14.7364 8.1364ZM6.89898 13.2H1.79973V1.8H4.34936H6.89898C7.13764 1.8 7.36652 1.70518 7.53528 1.5364C7.70404 1.36761 7.79885 1.13869 7.79885 0.9C7.79885 0.661305 7.70404 0.432387 7.53528 0.263604C7.36652 0.0948212 7.13764 0 6.89898 0H1.49978C1.10215 0.000442485 0.720931 0.15862 0.439763 0.439828C0.158596 0.721037 0.00044242 1.10231 0 1.5V13.5C0.00044242 13.8977 0.158596 14.279 0.439763 14.5602C0.720931 14.8414 1.10215 14.9996 1.49978 15H6.89898C7.13764 15 7.36652 14.9052 7.53528 14.7364C7.70404 14.5676 7.79885 14.3387 7.79885 14.1C7.79885 13.8613 7.70404 13.6324 7.53528 13.4636C7.36652 13.2948 7.13764 13.2 6.89898 13.2Z" fill="black"/>
</svg>
