<svg width="20" height="15" viewBox="0 0 20 15" fill="none" xmlns="http://www.w3.org/2000/svg">
<path d="M14.3829 7.78286L14.3828 7.78287L11.2333 10.9329L11.2331 10.9331C11.1959 10.9703 11.1518 10.9998 11.1033 11.0199C11.0548 11.0401 11.0028 11.0504 10.9503 11.0505C10.8977 11.0505 10.8457 11.0401 10.7972 11.02C10.7487 10.9999 10.7046 10.9705 10.6674 10.9333C10.6303 10.8962 10.6008 10.852 10.5807 10.8035C10.5606 10.7549 10.5502 10.7029 10.5503 10.6503C10.5503 10.5977 10.5607 10.5457 10.5808 10.4972C10.6009 10.4486 10.6304 10.4045 10.6676 10.3674L10.6679 10.3671L12.2812 8.75353L13.1346 7.9H11.9276H5.69916C5.59313 7.9 5.49143 7.85787 5.41643 7.78287C5.34144 7.70786 5.29929 7.60611 5.29929 7.5C5.29929 7.39389 5.34144 7.29214 5.41643 7.21713C5.49143 7.14212 5.59313 7.1 5.69916 7.1H11.9276H13.1346L12.2812 6.24647L10.6679 4.63287L10.6676 4.63263C10.6304 4.5955 10.6009 4.5514 10.5808 4.50285C10.5607 4.4543 10.5503 4.40226 10.5503 4.34969C10.5502 4.29713 10.5606 4.24508 10.5807 4.19652C10.6008 4.14796 10.6303 4.10384 10.6674 4.06668C10.7046 4.02952 10.7487 4.00005 10.7972 3.97996C10.8457 3.95986 10.8978 3.94953 10.9503 3.94955C11.0028 3.94956 11.0548 3.95993 11.1033 3.98007C11.1519 4.0002 11.1959 4.02969 11.2331 4.06688L11.2333 4.06713L14.3828 7.21713L14.3829 7.21713C14.42 7.25427 14.4495 7.29837 14.4696 7.3469C14.4897 7.39544 14.5 7.44746 14.5 7.5C14.5 7.55254 14.4897 7.60456 14.4696 7.65309C14.4495 7.70163 14.42 7.74572 14.3829 7.78286ZM1.29973 13.2V13.7H1.79973H6.89898C7.00501 13.7 7.10671 13.7421 7.1817 13.8171C7.2567 13.8921 7.29885 13.9939 7.29885 14.1C7.29885 14.2061 7.2567 14.3079 7.1817 14.3829C7.10671 14.4579 7.00501 14.5 6.89898 14.5H1.50033C1.23514 14.4997 0.980884 14.3942 0.793343 14.2066C0.605856 14.0191 0.500359 13.7649 0.5 13.4997V1.50031C0.500359 1.2351 0.605857 0.98087 0.793343 0.793356C0.980827 0.605844 1.23499 0.500359 1.50009 0.5H6.89898C7.00501 0.5 7.10671 0.542125 7.1817 0.617131C7.2567 0.69214 7.29885 0.79389 7.29885 0.9C7.29885 1.00611 7.2567 1.10786 7.1817 1.18287C7.10671 1.25788 7.00501 1.3 6.89898 1.3H4.34936H1.79973H1.29973V1.8V13.2ZM10.3143 10.0136L11.4277 8.9L10.3143 10.0136Z" fill="black" stroke="black"/>
</svg>
