<svg width="21" height="18" viewBox="0 0 21 18" fill="none" xmlns="http://www.w3.org/2000/svg">
<path d="M11.9019 18C11.7592 17.9996 11.6199 17.9562 11.5029 17.8753L4.50173 13.0276C4.40899 12.964 4.33318 12.8791 4.28076 12.7803C4.22834 12.6814 4.20087 12.5714 4.20068 12.4598V5.53452C4.20087 5.42287 4.22834 5.31292 4.28076 5.21405C4.33318 5.11517 4.40899 5.03029 4.50173 4.96665L11.5029 0.118972C11.6049 0.0506591 11.7234 0.0102025 11.8463 0.00169068C11.9693 -0.00682118 12.0923 0.0169131 12.203 0.0704954C12.321 0.12611 12.421 0.213326 12.4915 0.322261C12.5621 0.431195 12.6003 0.557493 12.602 0.686843V17.3075C12.6023 17.4346 12.5672 17.5594 12.5005 17.6681C12.4338 17.7769 12.3381 17.8653 12.224 17.9238C12.1243 17.9743 12.0139 18.0004 11.9019 18ZM5.60091 12.0997L11.2018 15.9778V2.01649L5.60091 5.89464V12.0997Z" fill="#8A2FFF"/>
<path d="M4.90078 13.1523H2.10034C1.54329 13.1523 1.00906 12.9335 0.615174 12.5438C0.221285 12.1542 0 11.6258 0 11.0748V6.91962C0 6.36861 0.221285 5.84017 0.615174 5.45055C1.00906 5.06093 1.54329 4.84204 2.10034 4.84204H4.90078C5.08647 4.84204 5.26454 4.915 5.39584 5.04488C5.52713 5.17475 5.6009 5.3509 5.6009 5.53457V12.4598C5.6009 12.6435 5.52713 12.8196 5.39584 12.9495C5.26454 13.0794 5.08647 13.1523 4.90078 13.1523V13.1523ZM2.10034 6.22709C1.91465 6.22709 1.73658 6.30005 1.60528 6.42993C1.47399 6.5598 1.40022 6.73595 1.40022 6.91962V11.0748C1.40022 11.2584 1.47399 11.4346 1.60528 11.5645C1.73658 11.6943 1.91465 11.7673 2.10034 11.7673H4.20067V6.22709H2.10034Z" fill="#8A2FFF"/>
<path d="M11.9019 12.4597V11.0746C12.3171 11.0743 12.7228 10.9522 13.0678 10.7239C13.4129 10.4956 13.6818 10.1713 13.8406 9.79188C13.9994 9.41248 14.041 8.99503 13.9601 8.59226C13.8793 8.18949 13.6795 7.81947 13.3862 7.52892L14.3803 6.54553C14.8711 7.02981 15.2055 7.64735 15.3411 8.31985C15.4767 8.99235 15.4074 9.68953 15.1419 10.323C14.8765 10.9565 14.4268 11.4977 13.85 11.8781C13.2732 12.2585 12.5952 12.4609 11.9019 12.4597V12.4597Z" fill="#8A2FFF"/>
<path d="M17.8388 15.5623C17.7467 15.5628 17.6553 15.5454 17.57 15.5109C17.4847 15.4764 17.4072 15.4257 17.3417 15.3615C17.2761 15.2971 17.224 15.2205 17.1885 15.1361C17.1529 15.0517 17.1346 14.9612 17.1346 14.8698C17.1346 14.7784 17.1529 14.6879 17.1885 14.6035C17.224 14.5191 17.2761 14.4425 17.3417 14.3781C18.7825 12.95 19.5917 11.0148 19.5917 8.99718C19.5917 6.97959 18.7825 5.0444 17.3417 3.61625C17.2765 3.55168 17.2247 3.47503 17.1893 3.39066C17.154 3.3063 17.1358 3.21587 17.1358 3.12456C17.1358 3.03324 17.154 2.94282 17.1893 2.85846C17.2247 2.77409 17.2765 2.69744 17.3417 2.63287C17.407 2.5683 17.4845 2.51708 17.5698 2.48213C17.6551 2.44719 17.7465 2.4292 17.8388 2.4292C17.9311 2.4292 18.0225 2.44719 18.1078 2.48213C18.1931 2.51708 18.2706 2.5683 18.3359 2.63287C20.0417 4.32109 21 6.61029 21 8.99718C21 11.3841 20.0417 13.6733 18.3359 15.3615C18.2705 15.4257 18.1929 15.4764 18.1076 15.5109C18.0223 15.5454 17.931 15.5628 17.8388 15.5623V15.5623Z" fill="#8A2FFF"/>
<path d="M15.8575 13.6023C15.6738 13.6016 15.4978 13.5295 15.3674 13.4015C15.252 13.2691 15.1915 13.0985 15.198 12.9238C15.2045 12.7491 15.2775 12.5833 15.4024 12.4597C15.8576 12.0095 16.2186 11.4751 16.4649 10.8869C16.7112 10.2987 16.838 9.66833 16.838 9.03168C16.838 8.39503 16.7112 7.76462 16.4649 7.17644C16.2186 6.58826 15.8576 6.05383 15.4024 5.60368C15.2877 5.4712 15.2278 5.30078 15.2346 5.12649C15.2414 4.9522 15.3145 4.78686 15.4392 4.66353C15.5638 4.54019 15.731 4.46794 15.9072 4.46121C16.0834 4.45448 16.2557 4.51376 16.3896 4.62722C17.5696 5.79586 18.2323 7.38 18.2323 9.03168C18.2323 10.6834 17.5696 12.2675 16.3896 13.4361C16.3172 13.4984 16.2326 13.5454 16.141 13.5739C16.0495 13.6025 15.953 13.6122 15.8575 13.6023V13.6023Z" fill="#8A2FFF"/>
</svg>
