<svg width="21" height="18" viewBox="0 0 21 18" fill="none" xmlns="http://www.w3.org/2000/svg">
<path d="M12.0168 18C11.8726 17.9997 11.732 17.9562 11.6138 17.8753L4.54516 13.0277C4.45153 12.964 4.37499 12.8791 4.32206 12.7803C4.26914 12.6814 4.2414 12.5714 4.24121 12.4598V5.53453C4.2414 5.42288 4.26914 5.31293 4.32206 5.21405C4.37499 5.11517 4.45153 5.03029 4.54516 4.96665L11.6138 0.118972C11.7169 0.0506591 11.8365 0.0102025 11.9606 0.00169068C12.0847 -0.00682118 12.209 0.0169131 12.3207 0.0704954C12.4399 0.12611 12.5409 0.213326 12.6121 0.322261C12.6833 0.431195 12.7219 0.557494 12.7236 0.686844V17.3075C12.7239 17.4346 12.6884 17.5594 12.6211 17.6681C12.5538 17.7769 12.4572 17.8653 12.3419 17.9238C12.2413 17.9743 12.1298 18.0004 12.0168 18ZM5.65495 12.0997L11.3099 15.9778V2.01649L5.65495 5.89464V12.0997Z" fill="#8A2FFF"/>
<path d="M4.94807 13.1524H2.1206C1.55818 13.1524 1.0188 12.9335 0.62111 12.5438C0.22342 12.1542 0 11.6258 0 11.0748V6.91962C0 6.36861 0.22342 5.84017 0.62111 5.45055C1.0188 5.06093 1.55818 4.84204 2.1206 4.84204H4.94807C5.13555 4.84204 5.31534 4.915 5.44791 5.04488C5.58047 5.17475 5.65494 5.3509 5.65494 5.53457V12.4598C5.65494 12.6435 5.58047 12.8196 5.44791 12.9495C5.31534 13.0794 5.13555 13.1524 4.94807 13.1524V13.1524ZM2.1206 6.22709C1.93313 6.22709 1.75334 6.30006 1.62077 6.42993C1.48821 6.5598 1.41374 6.73595 1.41374 6.91962V11.0748C1.41374 11.2584 1.48821 11.4346 1.62077 11.5645C1.75334 11.6943 1.93313 11.7673 2.1206 11.7673H4.24121V6.22709H2.1206Z" fill="#8A2FFF"/>
<path d="M15.002 5.56847L14.0023 6.54785L20.0003 12.4241L21 11.4448L15.002 5.56847Z" fill="#8A2FFF"/>
<path d="M20.0003 5.56842L14.0023 11.4447L15.002 12.4241L21 6.5478L20.0003 5.56842Z" fill="#8A2FFF"/>
</svg>
