<svg width="16" height="16" viewBox="0 0 16 16" fill="none" xmlns="http://www.w3.org/2000/svg">
<path d="M13.6571 2.34286C12.2095 0.895238 10.2095 0 8 0C5.79048 0 3.79048 0.895238 2.34286 2.34286C0.895238 3.79048 0 5.79048 0 8C0 10.2095 0.895238 12.2095 2.34286 13.6571C3.79048 15.1048 5.79048 16 8 16C10.2095 16 12.2095 15.1048 13.6571 13.6571C15.1048 12.2095 16 10.2095 16 8C16 5.79048 15.1048 3.79048 13.6571 2.34286ZM12.9714 12.9714C11.6952 14.2476 9.94286 15.0286 8 15.0286C6.05714 15.0286 4.30476 14.2476 3.02857 12.9714C1.77143 11.6952 0.971429 9.94286 0.971429 8C0.971429 6.05714 1.75238 4.30476 3.02857 3.02857C4.30476 1.75238 6.05714 0.971429 8 0.971429C9.94286 0.971429 11.6952 1.75238 12.9714 3.02857C14.2476 4.30476 15.0286 6.05714 15.0286 8C15.0286 9.94286 14.2286 11.6952 12.9714 12.9714Z" fill="#959595"/>
<path d="M12.4381 7.42855C12.4 7.39046 12.3429 7.31427 12.2857 7.23808C12.2667 7.21903 12.2667 7.21903 12.2476 7.19998C12.1905 7.14284 12.1333 7.10474 12.0571 7.06665L9.23809 5.4476C9.23809 5.4476 9.21904 5.4476 9.21904 5.42855L6.38095 3.79046C6.13333 3.63808 5.84761 3.61903 5.58095 3.67618C5.31428 3.75237 5.08571 3.92379 4.93333 4.17141C4.87618 4.2476 4.85714 4.34284 4.81904 4.41903C4.79999 4.47617 4.79999 4.55236 4.78094 4.62856C4.78094 4.6476 4.78094 4.6857 4.78094 4.70475V7.99998V11.2762C4.78094 11.5619 4.89523 11.8286 5.08571 12.019C5.27618 12.2095 5.54285 12.3238 5.82856 12.3238C5.9238 12.3238 6.03809 12.3047 6.13333 12.2666C6.22856 12.2286 6.3238 12.1905 6.39999 12.1333L9.2 10.5143L9.23809 10.4952L12.0571 8.87617C12.0762 8.87617 12.0762 8.85712 12.0952 8.85712C12.3238 8.70474 12.4952 8.47617 12.5524 8.22855C12.6286 7.96189 12.5905 7.67617 12.4381 7.42855ZM11.619 8.01903C11.619 8.03808 11.6 8.05712 11.5809 8.05712H11.5619L8.7619 9.69522L8.74285 9.71427L5.94285 11.3333C5.9238 11.3333 5.9238 11.3524 5.90475 11.3524C5.90475 11.3524 5.88571 11.3524 5.88571 11.3714H5.86666C5.84761 11.3714 5.82856 11.3524 5.80952 11.3524C5.79047 11.3333 5.79047 11.3143 5.79047 11.2952V7.99998V4.72379V4.70475V4.6857C5.80952 4.66665 5.82856 4.6476 5.84761 4.6476C5.86666 4.6476 5.88571 4.6476 5.90475 4.6476L8.7238 6.26665L8.74285 6.2857L11.5809 7.92379L11.6 7.94284L11.619 7.96189C11.619 7.98093 11.619 7.99998 11.619 8.01903Z" fill="#959595"/>
</svg>
